<svg xmlns="http://www.w3.org/2000/svg" xmlns:xlink="http://www.w3.org/1999/xlink" width="1920" zoomAndPan="magnify" viewBox="0 0 1440 280.499991" height="374" preserveAspectRatio="xMidYMid meet" version="1.0"><defs><g/></defs><g fill="#ffffff" fill-opacity="1"><g transform="translate(6.443779, 222.170359)"><g><path d="M 7.71875 -82.328125 C 7.71875 -98.546875 11.222656 -113.007812 18.234375 -125.71875 C 25.253906 -138.425781 35.039062 -148.328125 47.59375 -155.421875 C 60.144531 -162.523438 74.375 -166.078125 90.28125 -166.078125 C 109.78125 -166.078125 126.46875 -160.929688 140.34375 -150.640625 C 154.21875 -140.347656 163.492188 -126.3125 168.171875 -108.53125 L 124.203125 -108.53125 C 120.929688 -115.394531 116.289062 -120.617188 110.28125 -124.203125 C 104.28125 -127.785156 97.457031 -129.578125 89.8125 -129.578125 C 77.5 -129.578125 67.519531 -125.289062 59.875 -116.71875 C 52.238281 -108.144531 48.421875 -96.679688 48.421875 -82.328125 C 48.421875 -67.984375 52.238281 -56.523438 59.875 -47.953125 C 67.519531 -39.378906 77.5 -35.09375 89.8125 -35.09375 C 97.457031 -35.09375 104.28125 -36.882812 110.28125 -40.46875 C 116.289062 -44.050781 120.929688 -49.273438 124.203125 -56.140625 L 168.171875 -56.140625 C 163.492188 -38.359375 154.21875 -24.359375 140.34375 -14.140625 C 126.46875 -3.929688 109.78125 1.171875 90.28125 1.171875 C 74.375 1.171875 60.144531 -2.375 47.59375 -9.46875 C 35.039062 -16.5625 25.253906 -26.425781 18.234375 -39.0625 C 11.222656 -51.695312 7.71875 -66.117188 7.71875 -82.328125 Z M 7.71875 -82.328125 "/></g></g></g><g fill="#ffffff" fill-opacity="1"><g transform="translate(184.685191, 222.170359)"><g><path d="M 73.921875 1.875 C 61.128906 1.875 49.625 -0.851562 39.40625 -6.3125 C 29.195312 -11.769531 21.164062 -19.566406 15.3125 -29.703125 C 9.46875 -39.835938 6.546875 -51.691406 6.546875 -65.265625 C 6.546875 -78.671875 9.507812 -90.476562 15.4375 -100.6875 C 21.363281 -110.90625 29.472656 -118.742188 39.765625 -124.203125 C 50.054688 -129.660156 61.59375 -132.390625 74.375 -132.390625 C 87.164062 -132.390625 98.707031 -129.660156 109 -124.203125 C 119.289062 -118.742188 127.398438 -110.90625 133.328125 -100.6875 C 139.253906 -90.476562 142.21875 -78.671875 142.21875 -65.265625 C 142.21875 -51.847656 139.210938 -40.03125 133.203125 -29.8125 C 127.203125 -19.601562 119.015625 -11.769531 108.640625 -6.3125 C 98.273438 -0.851562 86.703125 1.875 73.921875 1.875 Z M 73.921875 -32.75 C 81.554688 -32.75 88.0625 -35.554688 93.4375 -41.171875 C 98.820312 -46.785156 101.515625 -54.816406 101.515625 -65.265625 C 101.515625 -75.710938 98.898438 -83.738281 93.671875 -89.34375 C 88.453125 -94.957031 82.019531 -97.765625 74.375 -97.765625 C 66.582031 -97.765625 60.113281 -95 54.96875 -89.46875 C 49.820312 -83.9375 47.25 -75.867188 47.25 -65.265625 C 47.25 -54.816406 49.78125 -46.785156 54.84375 -41.171875 C 59.914062 -35.554688 66.273438 -32.75 73.921875 -32.75 Z M 73.921875 -32.75 "/></g></g></g><g fill="#ffffff" fill-opacity="1"><g transform="translate(333.687526, 222.170359)"><g><path d="M 94.03125 -131.921875 C 109.3125 -131.921875 121.507812 -126.96875 130.625 -117.0625 C 139.75 -107.164062 144.3125 -93.5625 144.3125 -76.25 L 144.3125 0 L 104.5625 0 L 104.5625 -70.875 C 104.5625 -79.601562 102.296875 -86.382812 97.765625 -91.21875 C 93.242188 -96.050781 87.164062 -98.46875 79.53125 -98.46875 C 71.882812 -98.46875 65.800781 -96.050781 61.28125 -91.21875 C 56.757812 -86.382812 54.5 -79.601562 54.5 -70.875 L 54.5 0 L 14.5 0 L 14.5 -130.515625 L 54.5 -130.515625 L 54.5 -113.203125 C 58.550781 -118.972656 64.007812 -123.535156 70.875 -126.890625 C 77.738281 -130.242188 85.457031 -131.921875 94.03125 -131.921875 Z M 94.03125 -131.921875 "/></g></g></g><g fill="#ffffff" fill-opacity="1"><g transform="translate(491.344658, 222.170359)"><g><path d="M 94.03125 -131.921875 C 109.3125 -131.921875 121.507812 -126.96875 130.625 -117.0625 C 139.75 -107.164062 144.3125 -93.5625 144.3125 -76.25 L 144.3125 0 L 104.5625 0 L 104.5625 -70.875 C 104.5625 -79.601562 102.296875 -86.382812 97.765625 -91.21875 C 93.242188 -96.050781 87.164062 -98.46875 79.53125 -98.46875 C 71.882812 -98.46875 65.800781 -96.050781 61.28125 -91.21875 C 56.757812 -86.382812 54.5 -79.601562 54.5 -70.875 L 54.5 0 L 14.5 0 L 14.5 -130.515625 L 54.5 -130.515625 L 54.5 -113.203125 C 58.550781 -118.972656 64.007812 -123.535156 70.875 -126.890625 C 77.738281 -130.242188 85.457031 -131.921875 94.03125 -131.921875 Z M 94.03125 -131.921875 "/></g></g></g><g fill="#ffffff" fill-opacity="1"><g transform="translate(649.001791, 222.170359)"><g><path d="M 116.71875 -29 L 55.4375 -29 L 45.609375 0 L 3.75 0 L 63.15625 -164.203125 L 109.46875 -164.203125 L 168.875 0 L 126.546875 0 Z M 106.421875 -59.875 L 86.078125 -120 L 65.96875 -59.875 Z M 106.421875 -59.875 "/></g></g></g><g fill="#ffffff" fill-opacity="1"><g transform="translate(821.395436, 222.170359)"><g><path d="M 6.546875 -65.265625 C 6.546875 -78.828125 9.3125 -90.675781 14.84375 -100.8125 C 20.382812 -110.945312 28.101562 -118.742188 38 -124.203125 C 47.90625 -129.660156 59.253906 -132.390625 72.046875 -132.390625 C 88.421875 -132.390625 102.101562 -128.097656 113.09375 -119.515625 C 124.082031 -110.941406 131.296875 -98.859375 134.734375 -83.265625 L 92.15625 -83.265625 C 88.570312 -93.242188 81.632812 -98.234375 71.34375 -98.234375 C 64.007812 -98.234375 58.160156 -95.390625 53.796875 -89.703125 C 49.429688 -84.015625 47.25 -75.867188 47.25 -65.265625 C 47.25 -54.660156 49.429688 -46.507812 53.796875 -40.8125 C 58.160156 -35.125 64.007812 -32.28125 71.34375 -32.28125 C 81.632812 -32.28125 88.570312 -37.269531 92.15625 -47.25 L 134.734375 -47.25 C 131.296875 -31.96875 124.039062 -19.957031 112.96875 -11.21875 C 101.90625 -2.488281 88.265625 1.875 72.046875 1.875 C 59.253906 1.875 47.90625 -0.851562 38 -6.3125 C 28.101562 -11.769531 20.382812 -19.566406 14.84375 -29.703125 C 9.3125 -39.835938 6.546875 -51.691406 6.546875 -65.265625 Z M 6.546875 -65.265625 "/></g></g></g><g fill="#ffffff" fill-opacity="1"><g transform="translate(962.912577, 222.170359)"><g><path d="M 87.25 -33.921875 L 87.25 0 L 66.890625 0 C 52.390625 0 41.082031 -3.546875 32.96875 -10.640625 C 24.863281 -17.734375 20.8125 -29.3125 20.8125 -45.375 L 20.8125 -97.3125 L 4.90625 -97.3125 L 4.90625 -130.515625 L 20.8125 -130.515625 L 20.8125 -162.328125 L 60.8125 -162.328125 L 60.8125 -130.515625 L 87.015625 -130.515625 L 87.015625 -97.3125 L 60.8125 -97.3125 L 60.8125 -44.90625 C 60.8125 -41.007812 61.742188 -38.203125 63.609375 -36.484375 C 65.484375 -34.773438 68.609375 -33.921875 72.984375 -33.921875 Z M 87.25 -33.921875 "/></g></g></g><g fill="#ffffff" fill-opacity="1"><g transform="translate(1057.881134, 222.170359)"><g><path d="M 34.625 -144.09375 C 27.601562 -144.09375 21.867188 -146.15625 17.421875 -150.28125 C 12.984375 -154.414062 10.765625 -159.523438 10.765625 -165.609375 C 10.765625 -171.847656 12.984375 -177.03125 17.421875 -181.15625 C 21.867188 -185.289062 27.601562 -187.359375 34.625 -187.359375 C 41.476562 -187.359375 47.128906 -185.289062 51.578125 -181.15625 C 56.023438 -177.03125 58.25 -171.847656 58.25 -165.609375 C 58.25 -159.523438 56.023438 -154.414062 51.578125 -150.28125 C 47.128906 -146.15625 41.476562 -144.09375 34.625 -144.09375 Z M 54.5 -130.515625 L 54.5 0 L 14.5 0 L 14.5 -130.515625 Z M 54.5 -130.515625 "/></g></g></g><g fill="#ffffff" fill-opacity="1"><g transform="translate(1126.885385, 222.170359)"><g><path d="M 73.921875 1.875 C 61.128906 1.875 49.625 -0.851562 39.40625 -6.3125 C 29.195312 -11.769531 21.164062 -19.566406 15.3125 -29.703125 C 9.46875 -39.835938 6.546875 -51.691406 6.546875 -65.265625 C 6.546875 -78.671875 9.507812 -90.476562 15.4375 -100.6875 C 21.363281 -110.90625 29.472656 -118.742188 39.765625 -124.203125 C 50.054688 -129.660156 61.59375 -132.390625 74.375 -132.390625 C 87.164062 -132.390625 98.707031 -129.660156 109 -124.203125 C 119.289062 -118.742188 127.398438 -110.90625 133.328125 -100.6875 C 139.253906 -90.476562 142.21875 -78.671875 142.21875 -65.265625 C 142.21875 -51.847656 139.210938 -40.03125 133.203125 -29.8125 C 127.203125 -19.601562 119.015625 -11.769531 108.640625 -6.3125 C 98.273438 -0.851562 86.703125 1.875 73.921875 1.875 Z M 73.921875 -32.75 C 81.554688 -32.75 88.0625 -35.554688 93.4375 -41.171875 C 98.820312 -46.785156 101.515625 -54.816406 101.515625 -65.265625 C 101.515625 -75.710938 98.898438 -83.738281 93.671875 -89.34375 C 88.453125 -94.957031 82.019531 -97.765625 74.375 -97.765625 C 66.582031 -97.765625 60.113281 -95 54.96875 -89.46875 C 49.820312 -83.9375 47.25 -75.867188 47.25 -65.265625 C 47.25 -54.816406 49.78125 -46.785156 54.84375 -41.171875 C 59.914062 -35.554688 66.273438 -32.75 73.921875 -32.75 Z M 73.921875 -32.75 "/></g></g></g><g fill="#ffffff" fill-opacity="1"><g transform="translate(1275.88772, 222.170359)"><g><path d="M 94.03125 -131.921875 C 109.3125 -131.921875 121.507812 -126.96875 130.625 -117.0625 C 139.75 -107.164062 144.3125 -93.5625 144.3125 -76.25 L 144.3125 0 L 104.5625 0 L 104.5625 -70.875 C 104.5625 -79.601562 102.296875 -86.382812 97.765625 -91.21875 C 93.242188 -96.050781 87.164062 -98.46875 79.53125 -98.46875 C 71.882812 -98.46875 65.800781 -96.050781 61.28125 -91.21875 C 56.757812 -86.382812 54.5 -79.601562 54.5 -70.875 L 54.5 0 L 14.5 0 L 14.5 -130.515625 L 54.5 -130.515625 L 54.5 -113.203125 C 58.550781 -118.972656 64.007812 -123.535156 70.875 -126.890625 C 77.738281 -130.242188 85.457031 -131.921875 94.03125 -131.921875 Z M 94.03125 -131.921875 "/></g></g></g></svg>