<svg xmlns="http://www.w3.org/2000/svg" xmlns:xlink="http://www.w3.org/1999/xlink" width="1920" zoomAndPan="magnify" viewBox="0 0 1440 461.249995" height="615" preserveAspectRatio="xMidYMid meet" version="1.0"><defs><g/></defs><g fill="#a276fa" fill-opacity="1"><g transform="translate(478.217509, 282.665376)"><g><path d="M 4.9375 -52.71875 C 4.9375 -63.09375 7.179688 -72.347656 11.671875 -80.484375 C 16.171875 -88.617188 22.4375 -94.957031 30.46875 -99.5 C 38.507812 -104.050781 47.617188 -106.328125 57.796875 -106.328125 C 70.273438 -106.328125 80.957031 -103.03125 89.84375 -96.4375 C 98.726562 -89.851562 104.671875 -80.867188 107.671875 -69.484375 L 79.515625 -69.484375 C 77.421875 -73.878906 74.453125 -77.222656 70.609375 -79.515625 C 66.765625 -81.816406 62.394531 -82.96875 57.5 -82.96875 C 49.613281 -82.96875 43.222656 -80.21875 38.328125 -74.71875 C 33.441406 -69.226562 31 -61.894531 31 -52.71875 C 31 -43.53125 33.441406 -36.191406 38.328125 -30.703125 C 43.222656 -25.210938 49.613281 -22.46875 57.5 -22.46875 C 62.394531 -22.46875 66.765625 -23.613281 70.609375 -25.90625 C 74.453125 -28.195312 77.421875 -31.539062 79.515625 -35.9375 L 107.671875 -35.9375 C 104.671875 -24.5625 98.726562 -15.601562 89.84375 -9.0625 C 80.957031 -2.519531 70.273438 0.75 57.796875 0.75 C 47.617188 0.75 38.507812 -1.519531 30.46875 -6.0625 C 22.4375 -10.601562 16.171875 -16.914062 11.671875 -25 C 7.179688 -33.09375 4.9375 -42.332031 4.9375 -52.71875 Z M 4.9375 -52.71875 "/></g></g></g><g fill="#a276fa" fill-opacity="1"><g transform="translate(592.331981, 282.665376)"><g><path d="M 47.328125 1.203125 C 39.140625 1.203125 31.773438 -0.539062 25.234375 -4.03125 C 18.691406 -7.53125 13.546875 -12.523438 9.796875 -19.015625 C 6.054688 -25.503906 4.1875 -33.09375 4.1875 -41.78125 C 4.1875 -50.363281 6.082031 -57.925781 9.875 -64.46875 C 13.675781 -71.007812 18.867188 -76.023438 25.453125 -79.515625 C 32.046875 -83.015625 39.4375 -84.765625 47.625 -84.765625 C 55.8125 -84.765625 63.195312 -83.015625 69.78125 -79.515625 C 76.375 -76.023438 81.566406 -71.007812 85.359375 -64.46875 C 89.148438 -57.925781 91.046875 -50.363281 91.046875 -41.78125 C 91.046875 -33.195312 89.125 -25.632812 85.28125 -19.09375 C 81.4375 -12.550781 76.191406 -7.53125 69.546875 -4.03125 C 62.910156 -0.539062 55.503906 1.203125 47.328125 1.203125 Z M 47.328125 -20.96875 C 52.210938 -20.96875 56.375 -22.765625 59.8125 -26.359375 C 63.257812 -29.953125 64.984375 -35.09375 64.984375 -41.78125 C 64.984375 -48.46875 63.3125 -53.609375 59.96875 -57.203125 C 56.625 -60.796875 52.507812 -62.59375 47.625 -62.59375 C 42.632812 -62.59375 38.488281 -60.820312 35.1875 -57.28125 C 31.894531 -53.738281 30.25 -48.570312 30.25 -41.78125 C 30.25 -35.09375 31.867188 -29.953125 35.109375 -26.359375 C 38.359375 -22.765625 42.429688 -20.96875 47.328125 -20.96875 Z M 47.328125 -20.96875 "/></g></g></g><g fill="#a276fa" fill-opacity="1"><g transform="translate(687.726869, 282.665376)"><g><path d="M 60.203125 -84.453125 C 69.984375 -84.453125 77.789062 -81.28125 83.625 -74.9375 C 89.46875 -68.601562 92.390625 -59.894531 92.390625 -48.8125 L 92.390625 0 L 66.9375 0 L 66.9375 -45.375 C 66.9375 -50.96875 65.488281 -55.3125 62.59375 -58.40625 C 59.695312 -61.5 55.804688 -63.046875 50.921875 -63.046875 C 46.023438 -63.046875 42.128906 -61.5 39.234375 -58.40625 C 36.335938 -55.3125 34.890625 -50.96875 34.890625 -45.375 L 34.890625 0 L 9.28125 0 L 9.28125 -83.5625 L 34.890625 -83.5625 L 34.890625 -72.484375 C 37.484375 -76.171875 40.976562 -79.085938 45.375 -81.234375 C 49.769531 -83.378906 54.710938 -84.453125 60.203125 -84.453125 Z M 60.203125 -84.453125 "/></g></g></g><g fill="#a276fa" fill-opacity="1"><g transform="translate(788.662777, 282.665376)"><g><path d="M 60.203125 -84.453125 C 69.984375 -84.453125 77.789062 -81.28125 83.625 -74.9375 C 89.46875 -68.601562 92.390625 -59.894531 92.390625 -48.8125 L 92.390625 0 L 66.9375 0 L 66.9375 -45.375 C 66.9375 -50.96875 65.488281 -55.3125 62.59375 -58.40625 C 59.695312 -61.5 55.804688 -63.046875 50.921875 -63.046875 C 46.023438 -63.046875 42.128906 -61.5 39.234375 -58.40625 C 36.335938 -55.3125 34.890625 -50.96875 34.890625 -45.375 L 34.890625 0 L 9.28125 0 L 9.28125 -83.5625 L 34.890625 -83.5625 L 34.890625 -72.484375 C 37.484375 -76.171875 40.976562 -79.085938 45.375 -81.234375 C 49.769531 -83.378906 54.710938 -84.453125 60.203125 -84.453125 Z M 60.203125 -84.453125 "/></g></g></g><path fill="#e27cff" d="M 291.757812 163.945312 C 249.367188 163.945312 210.8125 150.871094 180.269531 126.148438 C 150.039062 101.667969 127.675781 65.753906 115.480469 22.152344 C 126.472656 17.460938 133.148438 14.40625 144.046875 9.070312 C 167.765625 86.605469 224.296875 130.964844 299.707031 130.964844 C 312.640625 130.964844 326.117188 129.636719 339.835938 127.003906 C 340.195312 138.828125 340.628906 146.386719 341.636719 158.378906 C 324.632812 162.078125 307.867188 163.945312 291.757812 163.945312 " fill-opacity="1" fill-rule="nonzero"/><path fill="#e27cff" d="M 289.183594 61.445312 C 278.625 78.980469 255.84375 84.632812 238.3125 74.070312 C 220.777344 63.511719 215.125 40.730469 225.6875 23.199219 C 236.25 5.667969 259.023438 0.0117188 276.558594 10.574219 C 294.09375 21.136719 299.742188 43.910156 289.183594 61.445312 " fill-opacity="1" fill-rule="nonzero"/><path fill="#7c7afa" d="M 23.324219 349.234375 C 18.632812 338.246094 15.582031 331.574219 10.238281 320.660156 C 101.203125 292.785156 146.058594 218.324219 128.171875 124.875 C 139.992188 124.515625 147.554688 124.078125 159.546875 123.074219 C 171.148438 176.417969 164.566406 225.671875 140.464844 265.691406 C 116.359375 305.695312 75.898438 334.542969 23.324219 349.234375 " fill-opacity="1" fill-rule="nonzero"/><path fill="#7c7afa" d="M 62.613281 175.527344 C 80.148438 186.085938 85.800781 208.867188 75.238281 226.398438 C 64.675781 243.929688 41.902344 249.585938 24.367188 239.023438 C 6.835938 228.460938 1.183594 205.6875 11.742188 188.152344 C 22.304688 170.617188 45.082031 164.964844 62.613281 175.527344 " fill-opacity="1" fill-rule="nonzero"/><path fill="#5572f4" d="M 321.832031 454.472656 C 298.113281 376.9375 241.578125 332.574219 166.171875 332.574219 C 153.238281 332.574219 139.761719 333.90625 126.042969 336.539062 C 125.679688 324.699219 125.246094 317.140625 124.242188 305.160156 C 141.246094 301.464844 158.011719 299.59375 174.121094 299.59375 C 216.515625 299.59375 255.066406 312.667969 285.609375 337.394531 C 315.839844 361.871094 338.203125 397.789062 350.402344 441.386719 C 339.417969 446.078125 332.742188 449.128906 321.832031 454.472656 " fill-opacity="1" fill-rule="nonzero"/><path fill="#5572f4" d="M 176.695312 402.097656 C 187.257812 384.5625 210.035156 378.910156 227.566406 389.472656 C 245.097656 400.03125 250.753906 422.808594 240.195312 440.34375 C 229.628906 457.875 206.855469 463.527344 189.320312 452.96875 C 171.789062 442.402344 166.136719 419.628906 176.695312 402.097656 " fill-opacity="1" fill-rule="nonzero"/><path fill="#39b9cb" d="M 306.332031 340.464844 C 294.734375 287.121094 301.3125 237.867188 325.417969 197.851562 C 349.515625 157.84375 389.980469 129 442.558594 114.308594 C 447.25 125.3125 450.308594 131.984375 455.640625 142.882812 C 364.675781 170.757812 319.824219 245.214844 337.707031 338.667969 C 325.882812 339.027344 318.320312 339.464844 306.332031 340.464844 " fill-opacity="1" fill-rule="nonzero"/><path fill="#39b9cb" d="M 403.265625 288.015625 C 385.730469 277.453125 380.078125 254.675781 390.640625 237.144531 C 401.199219 219.613281 423.980469 213.957031 441.511719 224.515625 C 459.042969 235.082031 464.695312 257.855469 454.136719 275.390625 C 443.574219 292.925781 420.800781 298.574219 403.265625 288.015625 " fill-opacity="1" fill-rule="nonzero"/><g fill="#5572f4" fill-opacity="1"><g transform="translate(874.469974, 357.289076)"><g><path d="M 85.375 0 L 79.546875 -22.171875 L 41.109375 -22.171875 L 35.125 0 L 0 0 L 38.59375 -118.796875 L 81.25 -118.796875 L 120.328125 0 Z M 72.90625 -48.390625 L 67.8125 -67.8125 C 66.625 -72.132812 65.179688 -77.71875 63.484375 -84.5625 C 61.785156 -91.414062 60.664062 -96.328125 60.125 -99.296875 C 59.644531 -96.546875 58.6875 -92.015625 57.25 -85.703125 C 55.820312 -79.390625 52.65625 -66.953125 47.75 -48.390625 Z M 72.90625 -48.390625 "/></g></g></g><g fill="#5572f4" fill-opacity="1"><g transform="translate(994.799799, 357.289076)"><g><path d="M 52.6875 1.625 C 37.6875 1.625 26.3125 -2.421875 18.5625 -10.515625 C 10.820312 -18.609375 6.953125 -30.238281 6.953125 -45.40625 C 6.953125 -60.613281 11.132812 -72.398438 19.5 -80.765625 C 27.863281 -89.128906 39.757812 -93.3125 55.1875 -93.3125 C 65.820312 -93.3125 75.832031 -90.988281 85.21875 -86.34375 L 75.90625 -62.953125 C 72.070312 -64.628906 68.535156 -65.96875 65.296875 -66.96875 C 62.066406 -67.96875 58.695312 -68.46875 55.1875 -68.46875 C 50.0625 -68.46875 46.097656 -66.46875 43.296875 -62.46875 C 40.492188 -58.476562 39.09375 -52.84375 39.09375 -45.5625 C 39.09375 -30.882812 44.515625 -23.546875 55.359375 -23.546875 C 64.628906 -23.546875 73.53125 -26.242188 82.0625 -31.640625 L 82.0625 -6.46875 C 73.914062 -1.070312 64.125 1.625 52.6875 1.625 Z M 52.6875 1.625 "/></g></g></g><g fill="#5572f4" fill-opacity="1"><g transform="translate(1084.1368, 357.289076)"><g><path d="M 55.84375 -23.390625 C 60.101562 -23.390625 65.203125 -24.441406 71.140625 -26.546875 L 71.140625 -3.484375 C 66.867188 -1.648438 62.804688 -0.34375 58.953125 0.4375 C 55.097656 1.226562 50.582031 1.625 45.40625 1.625 C 34.769531 1.625 27.101562 -0.976562 22.40625 -6.1875 C 17.71875 -11.394531 15.375 -19.394531 15.375 -30.1875 L 15.375 -67.984375 L 4.28125 -67.984375 L 4.28125 -80.84375 L 18.375 -90.796875 L 26.546875 -110.0625 L 47.265625 -110.0625 L 47.265625 -91.6875 L 69.75 -91.6875 L 69.75 -67.984375 L 47.265625 -67.984375 L 47.265625 -32.296875 C 47.265625 -26.359375 50.125 -23.390625 55.84375 -23.390625 Z M 55.84375 -23.390625 "/></g></g></g><g fill="#5572f4" fill-opacity="1"><g transform="translate(1160.364556, 357.289076)"><g><path d="M 42.734375 0 L 11.09375 0 L 11.09375 -91.6875 L 42.734375 -91.6875 Z M 10.28125 -114.515625 C 10.28125 -119.253906 11.597656 -122.785156 14.234375 -125.109375 C 16.878906 -127.429688 21.144531 -128.59375 27.03125 -128.59375 C 32.90625 -128.59375 37.191406 -127.40625 39.890625 -125.03125 C 42.585938 -122.65625 43.9375 -119.148438 43.9375 -114.515625 C 43.9375 -105.234375 38.300781 -100.59375 27.03125 -100.59375 C 15.863281 -100.59375 10.28125 -105.234375 10.28125 -114.515625 Z M 10.28125 -114.515625 "/></g></g></g><g fill="#5572f4" fill-opacity="1"><g transform="translate(1214.258062, 357.289076)"><g><path d="M 98.484375 -46.046875 C 98.484375 -31.046875 94.453125 -19.347656 86.390625 -10.953125 C 78.328125 -2.566406 67.035156 1.625 52.515625 1.625 C 38.597656 1.625 27.523438 -2.660156 19.296875 -11.234375 C 11.066406 -19.816406 6.953125 -31.421875 6.953125 -46.046875 C 6.953125 -60.992188 10.984375 -72.609375 19.046875 -80.890625 C 27.117188 -89.171875 38.4375 -93.3125 53 -93.3125 C 62.007812 -93.3125 69.96875 -91.394531 76.875 -87.5625 C 83.78125 -83.726562 89.109375 -78.238281 92.859375 -71.09375 C 96.609375 -63.945312 98.484375 -55.597656 98.484375 -46.046875 Z M 39.09375 -46.046875 C 39.09375 -38.171875 40.144531 -32.164062 42.25 -28.03125 C 44.351562 -23.90625 47.882812 -21.84375 52.84375 -21.84375 C 57.75 -21.84375 61.210938 -23.90625 63.234375 -28.03125 C 65.265625 -32.164062 66.28125 -38.171875 66.28125 -46.046875 C 66.28125 -53.867188 65.253906 -59.773438 63.203125 -63.765625 C 61.148438 -67.753906 57.644531 -69.75 52.6875 -69.75 C 47.832031 -69.75 44.351562 -67.765625 42.25 -63.796875 C 40.144531 -59.835938 39.09375 -53.921875 39.09375 -46.046875 Z M 39.09375 -46.046875 "/></g></g></g><g fill="#5572f4" fill-opacity="1"><g transform="translate(1319.86024, 357.289076)"><g><path d="M 68.78125 0 L 68.78125 -50.015625 C 68.78125 -56.109375 67.90625 -60.707031 66.15625 -63.8125 C 64.40625 -66.914062 61.585938 -68.46875 57.703125 -68.46875 C 52.359375 -68.46875 48.5 -66.332031 46.125 -62.0625 C 43.75 -57.800781 42.5625 -50.492188 42.5625 -40.140625 L 42.5625 0 L 10.921875 0 L 10.921875 -91.6875 L 34.796875 -91.6875 L 38.765625 -80.359375 L 40.625 -80.359375 C 43.320312 -84.671875 47.054688 -87.90625 51.828125 -90.0625 C 56.609375 -92.226562 62.097656 -93.3125 68.296875 -93.3125 C 78.441406 -93.3125 86.332031 -90.367188 91.96875 -84.484375 C 97.601562 -78.609375 100.421875 -70.328125 100.421875 -59.640625 L 100.421875 0 Z M 68.78125 0 "/></g></g></g></svg>