<svg xmlns="http://www.w3.org/2000/svg" xmlns:xlink="http://www.w3.org/1999/xlink" width="500" zoomAndPan="magnify" viewBox="0 0 375 374.999991" height="500" preserveAspectRatio="xMidYMid meet" version="1.0"><path fill="#ffffff" d="M 233.125 134.96875 C 200.269531 134.96875 170.386719 124.832031 146.710938 105.667969 C 123.28125 86.695312 105.949219 58.859375 96.496094 25.066406 C 105.015625 21.425781 110.1875 19.058594 118.636719 14.925781 C 137.023438 75.019531 180.839844 109.402344 239.285156 109.402344 C 249.3125 109.402344 259.757812 108.371094 270.390625 106.332031 C 270.667969 115.496094 271.007812 121.359375 271.785156 130.652344 C 258.605469 133.515625 245.613281 134.96875 233.125 134.96875 " fill-opacity="1" fill-rule="nonzero"/><path fill="#ffffff" d="M 231.128906 55.519531 C 222.945312 69.109375 205.289062 73.492188 191.699219 65.304688 C 178.109375 57.121094 173.730469 39.464844 181.914062 25.875 C 190.101562 12.285156 207.753906 7.90625 221.34375 16.089844 C 234.9375 24.277344 239.316406 41.929688 231.128906 55.519531 " fill-opacity="1" fill-rule="nonzero"/><path fill="#ffffff" d="M 25.066406 278.582031 C 21.429688 270.066406 19.066406 264.894531 14.925781 256.433594 C 85.429688 234.828125 120.195312 177.113281 106.332031 104.679688 C 115.496094 104.40625 121.355469 104.0625 130.652344 103.289062 C 139.640625 144.632812 134.542969 182.808594 115.859375 213.828125 C 97.175781 244.835938 65.816406 267.191406 25.066406 278.582031 " fill-opacity="1" fill-rule="nonzero"/><path fill="#ffffff" d="M 55.519531 143.941406 C 69.109375 152.128906 73.492188 169.785156 65.304688 183.371094 C 57.117188 196.960938 39.464844 201.34375 25.875 193.160156 C 12.285156 184.96875 7.90625 167.320312 16.089844 153.726562 C 24.277344 140.136719 41.929688 135.757812 55.519531 143.941406 " fill-opacity="1" fill-rule="nonzero"/><path fill="#ffffff" d="M 256.4375 360.148438 C 238.050781 300.050781 194.234375 265.667969 135.785156 265.667969 C 125.761719 265.667969 115.316406 266.699219 104.679688 268.742188 C 104.402344 259.566406 104.0625 253.707031 103.285156 244.421875 C 116.464844 241.554688 129.460938 240.105469 141.949219 240.105469 C 174.804688 240.105469 204.6875 250.238281 228.359375 269.402344 C 251.789062 288.375 269.125 316.214844 278.582031 350.007812 C 270.066406 353.644531 264.894531 356.007812 256.4375 360.148438 " fill-opacity="1" fill-rule="nonzero"/><path fill="#ffffff" d="M 143.941406 319.554688 C 152.128906 305.960938 169.78125 301.582031 183.371094 309.769531 C 196.960938 317.953125 201.34375 335.609375 193.160156 349.199219 C 184.972656 362.785156 167.320312 367.167969 153.726562 358.984375 C 140.136719 350.796875 135.757812 333.144531 143.941406 319.554688 " fill-opacity="1" fill-rule="nonzero"/><path fill="#ffffff" d="M 244.421875 271.785156 C 235.429688 230.4375 240.53125 192.261719 259.214844 161.246094 C 277.894531 130.238281 309.257812 107.878906 350.007812 96.492188 C 353.644531 105.023438 356.015625 110.195312 360.148438 118.640625 C 289.644531 140.246094 254.878906 197.957031 268.742188 270.390625 C 259.578125 270.667969 253.714844 271.007812 244.421875 271.785156 " fill-opacity="1" fill-rule="nonzero"/><path fill="#ffffff" d="M 319.554688 231.128906 C 305.960938 222.945312 301.582031 205.289062 309.769531 191.699219 C 317.953125 178.113281 335.609375 173.730469 349.199219 181.914062 C 362.785156 190.101562 367.167969 207.753906 358.984375 221.34375 C 350.796875 234.9375 333.144531 239.316406 319.554688 231.128906 " fill-opacity="1" fill-rule="nonzero"/></svg>