<svg xmlns="http://www.w3.org/2000/svg" xmlns:xlink="http://www.w3.org/1999/xlink" width="1920" zoomAndPan="magnify" viewBox="0 0 1440 809.999993" height="1080" preserveAspectRatio="xMidYMid meet" version="1.0"><defs><g/></defs><g fill="#a276fa" fill-opacity="1"><g transform="translate(43.75406, 409.049952)"><g><path d="M 6.734375 -71.78125 C 6.734375 -85.925781 9.789062 -98.535156 15.90625 -109.609375 C 22.019531 -120.691406 30.550781 -129.328125 41.5 -135.515625 C 52.445312 -141.703125 64.851562 -144.796875 78.71875 -144.796875 C 95.71875 -144.796875 110.265625 -140.304688 122.359375 -131.328125 C 134.460938 -122.359375 142.550781 -110.125 146.625 -94.625 L 108.296875 -94.625 C 105.441406 -100.601562 101.394531 -105.15625 96.15625 -108.28125 C 90.925781 -111.414062 84.976562 -112.984375 78.3125 -112.984375 C 67.570312 -112.984375 58.867188 -109.242188 52.203125 -101.765625 C 45.546875 -94.285156 42.21875 -84.289062 42.21875 -71.78125 C 42.21875 -59.28125 45.546875 -49.289062 52.203125 -41.8125 C 58.867188 -34.332031 67.570312 -30.59375 78.3125 -30.59375 C 84.976562 -30.59375 90.925781 -32.15625 96.15625 -35.28125 C 101.394531 -38.40625 105.441406 -42.957031 108.296875 -48.9375 L 146.625 -48.9375 C 142.550781 -33.445312 134.460938 -21.25 122.359375 -12.34375 C 110.265625 -3.4375 95.71875 1.015625 78.71875 1.015625 C 64.851562 1.015625 52.445312 -2.070312 41.5 -8.25 C 30.550781 -14.4375 22.019531 -23.035156 15.90625 -34.046875 C 9.789062 -45.066406 6.734375 -57.644531 6.734375 -71.78125 Z M 6.734375 -71.78125 "/></g></g></g><g fill="#a276fa" fill-opacity="1"><g transform="translate(199.139744, 409.049952)"><g><path d="M 64.4375 1.625 C 53.289062 1.625 43.265625 -0.75 34.359375 -5.5 C 25.453125 -10.257812 18.445312 -17.054688 13.34375 -25.890625 C 8.25 -34.734375 5.703125 -45.070312 5.703125 -56.90625 C 5.703125 -68.59375 8.285156 -78.890625 13.453125 -87.796875 C 18.617188 -96.703125 25.6875 -103.53125 34.65625 -108.28125 C 43.632812 -113.039062 53.703125 -115.421875 64.859375 -115.421875 C 76.003906 -115.421875 86.0625 -113.039062 95.03125 -108.28125 C 104.007812 -103.53125 111.082031 -96.703125 116.25 -87.796875 C 121.414062 -78.890625 124 -68.59375 124 -56.90625 C 124 -45.207031 121.378906 -34.90625 116.140625 -26 C 110.910156 -17.09375 103.773438 -10.257812 94.734375 -5.5 C 85.691406 -0.75 75.59375 1.625 64.4375 1.625 Z M 64.4375 -28.546875 C 71.101562 -28.546875 76.78125 -30.992188 81.46875 -35.890625 C 86.164062 -40.785156 88.515625 -47.789062 88.515625 -56.90625 C 88.515625 -66.007812 86.234375 -73.007812 81.671875 -77.90625 C 77.117188 -82.800781 71.515625 -85.25 64.859375 -85.25 C 58.054688 -85.25 52.410156 -82.832031 47.921875 -78 C 43.441406 -73.175781 41.203125 -66.144531 41.203125 -56.90625 C 41.203125 -47.789062 43.410156 -40.785156 47.828125 -35.890625 C 52.242188 -30.992188 57.78125 -28.546875 64.4375 -28.546875 Z M 64.4375 -28.546875 "/></g></g></g><g fill="#a276fa" fill-opacity="1"><g transform="translate(329.035653, 409.049952)"><g><path d="M 81.984375 -115.015625 C 95.304688 -115.015625 105.941406 -110.695312 113.890625 -102.0625 C 121.847656 -93.4375 125.828125 -81.578125 125.828125 -66.484375 L 125.828125 0 L 91.15625 0 L 91.15625 -61.796875 C 91.15625 -69.410156 89.179688 -75.320312 85.234375 -79.53125 C 81.296875 -83.75 76 -85.859375 69.34375 -85.859375 C 62.675781 -85.859375 57.367188 -83.75 53.421875 -79.53125 C 49.484375 -75.320312 47.515625 -69.410156 47.515625 -61.796875 L 47.515625 0 L 12.640625 0 L 12.640625 -113.796875 L 47.515625 -113.796875 L 47.515625 -98.703125 C 51.046875 -103.734375 55.800781 -107.707031 61.78125 -110.625 C 67.769531 -113.550781 74.503906 -115.015625 81.984375 -115.015625 Z M 81.984375 -115.015625 "/></g></g></g><g fill="#a276fa" fill-opacity="1"><g transform="translate(466.476541, 409.049952)"><g><path d="M 81.984375 -115.015625 C 95.304688 -115.015625 105.941406 -110.695312 113.890625 -102.0625 C 121.847656 -93.4375 125.828125 -81.578125 125.828125 -66.484375 L 125.828125 0 L 91.15625 0 L 91.15625 -61.796875 C 91.15625 -69.410156 89.179688 -75.320312 85.234375 -79.53125 C 81.296875 -83.75 76 -85.859375 69.34375 -85.859375 C 62.675781 -85.859375 57.367188 -83.75 53.421875 -79.53125 C 49.484375 -75.320312 47.515625 -69.410156 47.515625 -61.796875 L 47.515625 0 L 12.640625 0 L 12.640625 -113.796875 L 47.515625 -113.796875 L 47.515625 -98.703125 C 51.046875 -103.734375 55.800781 -107.707031 61.78125 -110.625 C 67.769531 -113.550781 74.503906 -115.015625 81.984375 -115.015625 Z M 81.984375 -115.015625 "/></g></g></g><g fill="#5572f4" fill-opacity="1"><g transform="translate(598.59627, 507.424018)"><g><path d="M 119.90625 -29.796875 L 56.953125 -29.796875 L 46.859375 0 L 3.84375 0 L 64.875 -168.671875 L 112.453125 -168.671875 L 173.484375 0 L 130 0 Z M 109.328125 -61.515625 L 88.421875 -123.265625 L 67.765625 -61.515625 Z M 109.328125 -61.515625 "/></g></g></g><g fill="#5572f4" fill-opacity="1"><g transform="translate(775.679777, 507.424018)"><g><path d="M 6.734375 -67.03125 C 6.734375 -80.96875 9.570312 -93.140625 15.25 -103.546875 C 20.9375 -113.960938 28.863281 -121.972656 39.03125 -127.578125 C 49.207031 -133.191406 60.863281 -136 74 -136 C 90.820312 -136 104.878906 -131.59375 116.171875 -122.78125 C 127.460938 -113.96875 134.875 -101.554688 138.40625 -85.546875 L 94.671875 -85.546875 C 90.984375 -95.796875 83.851562 -100.921875 73.28125 -100.921875 C 65.757812 -100.921875 59.753906 -97.992188 55.265625 -92.140625 C 50.773438 -86.296875 48.53125 -77.925781 48.53125 -67.03125 C 48.53125 -56.144531 50.773438 -47.773438 55.265625 -41.921875 C 59.753906 -36.078125 65.757812 -33.15625 73.28125 -33.15625 C 83.851562 -33.15625 90.984375 -38.28125 94.671875 -48.53125 L 138.40625 -48.53125 C 134.875 -32.832031 127.421875 -20.5 116.046875 -11.53125 C 104.679688 -2.5625 90.664062 1.921875 74 1.921875 C 60.863281 1.921875 49.207031 -0.878906 39.03125 -6.484375 C 28.863281 -12.085938 20.9375 -20.097656 15.25 -30.515625 C 9.570312 -40.929688 6.734375 -53.101562 6.734375 -67.03125 Z M 6.734375 -67.03125 "/></g></g></g><g fill="#5572f4" fill-opacity="1"><g transform="translate(921.046841, 507.424018)"><g><path d="M 89.625 -34.84375 L 89.625 0 L 68.71875 0 C 53.820312 0 42.207031 -3.640625 33.875 -10.921875 C 25.550781 -18.210938 21.390625 -30.109375 21.390625 -46.609375 L 21.390625 -99.953125 L 5.046875 -99.953125 L 5.046875 -134.078125 L 21.390625 -134.078125 L 21.390625 -166.75 L 62.46875 -166.75 L 62.46875 -134.078125 L 89.390625 -134.078125 L 89.390625 -99.953125 L 62.46875 -99.953125 L 62.46875 -46.140625 C 62.46875 -42.128906 63.425781 -39.242188 65.34375 -37.484375 C 67.269531 -35.722656 70.476562 -34.84375 74.96875 -34.84375 Z M 89.625 -34.84375 "/></g></g></g><g fill="#5572f4" fill-opacity="1"><g transform="translate(1018.598964, 507.424018)"><g><path d="M 35.5625 -148.015625 C 28.351562 -148.015625 22.460938 -150.132812 17.890625 -154.375 C 13.328125 -158.625 11.046875 -163.875 11.046875 -170.125 C 11.046875 -176.53125 13.328125 -181.851562 17.890625 -186.09375 C 22.460938 -190.34375 28.351562 -192.46875 35.5625 -192.46875 C 42.613281 -192.46875 48.421875 -190.34375 52.984375 -186.09375 C 57.546875 -181.851562 59.828125 -176.53125 59.828125 -170.125 C 59.828125 -163.875 57.546875 -158.625 52.984375 -154.375 C 48.421875 -150.132812 42.613281 -148.015625 35.5625 -148.015625 Z M 55.984375 -134.078125 L 55.984375 0 L 14.890625 0 L 14.890625 -134.078125 Z M 55.984375 -134.078125 "/></g></g></g><g fill="#5572f4" fill-opacity="1"><g transform="translate(1089.480411, 507.424018)"><g><path d="M 75.921875 1.921875 C 62.785156 1.921875 50.972656 -0.878906 40.484375 -6.484375 C 29.992188 -12.085938 21.742188 -20.097656 15.734375 -30.515625 C 9.734375 -40.929688 6.734375 -53.101562 6.734375 -67.03125 C 6.734375 -80.8125 9.773438 -92.945312 15.859375 -103.4375 C 21.941406 -113.925781 30.269531 -121.972656 40.84375 -127.578125 C 51.414062 -133.191406 63.269531 -136 76.40625 -136 C 89.539062 -136 101.394531 -133.191406 111.96875 -127.578125 C 122.539062 -121.972656 130.867188 -113.925781 136.953125 -103.4375 C 143.046875 -92.945312 146.09375 -80.8125 146.09375 -67.03125 C 146.09375 -53.257812 143.007812 -41.125 136.84375 -30.625 C 130.675781 -20.132812 122.265625 -12.085938 111.609375 -6.484375 C 100.953125 -0.878906 89.054688 1.921875 75.921875 1.921875 Z M 75.921875 -33.640625 C 83.773438 -33.640625 90.460938 -36.519531 95.984375 -42.28125 C 101.515625 -48.050781 104.28125 -56.300781 104.28125 -67.03125 C 104.28125 -77.769531 101.597656 -86.019531 96.234375 -91.78125 C 90.867188 -97.550781 84.257812 -100.4375 76.40625 -100.4375 C 68.394531 -100.4375 61.742188 -97.59375 56.453125 -91.90625 C 51.171875 -86.21875 48.53125 -77.925781 48.53125 -67.03125 C 48.53125 -56.300781 51.132812 -48.050781 56.34375 -42.28125 C 61.550781 -36.519531 68.078125 -33.640625 75.921875 -33.640625 Z M 75.921875 -33.640625 "/></g></g></g><g fill="#5572f4" fill-opacity="1"><g transform="translate(1242.53631, 507.424018)"><g><path d="M 96.59375 -135.515625 C 112.289062 -135.515625 124.820312 -130.425781 134.1875 -120.25 C 143.5625 -110.082031 148.25 -96.109375 148.25 -78.328125 L 148.25 0 L 107.40625 0 L 107.40625 -72.8125 C 107.40625 -81.78125 105.082031 -88.742188 100.4375 -93.703125 C 95.789062 -98.671875 89.546875 -101.15625 81.703125 -101.15625 C 73.847656 -101.15625 67.597656 -98.671875 62.953125 -93.703125 C 58.304688 -88.742188 55.984375 -81.78125 55.984375 -72.8125 L 55.984375 0 L 14.890625 0 L 14.890625 -134.078125 L 55.984375 -134.078125 L 55.984375 -116.296875 C 60.148438 -122.222656 65.753906 -126.90625 72.796875 -130.34375 C 79.847656 -133.789062 87.78125 -135.515625 96.59375 -135.515625 Z M 96.59375 -135.515625 "/></g></g></g></svg>