<svg xmlns="http://www.w3.org/2000/svg" xmlns:xlink="http://www.w3.org/1999/xlink" width="1920" zoomAndPan="magnify" viewBox="0 0 1440 461.249995" height="615" preserveAspectRatio="xMidYMid meet" version="1.0"><defs><g/></defs><g fill="#a276fa" fill-opacity="1"><g transform="translate(503.299999, 285.235104)"><g><path d="M 5.0625 -54.046875 C 5.0625 -64.703125 7.363281 -74.203125 11.96875 -82.546875 C 16.582031 -90.890625 23.007812 -97.390625 31.25 -102.046875 C 39.488281 -106.703125 48.832031 -109.03125 59.28125 -109.03125 C 72.070312 -109.03125 83.019531 -105.648438 92.125 -98.890625 C 101.238281 -92.140625 107.332031 -82.925781 110.40625 -71.25 L 81.546875 -71.25 C 79.390625 -75.757812 76.34375 -79.191406 72.40625 -81.546875 C 68.46875 -83.898438 63.988281 -85.078125 58.96875 -85.078125 C 50.882812 -85.078125 44.332031 -82.257812 39.3125 -76.625 C 34.289062 -71 31.78125 -63.472656 31.78125 -54.046875 C 31.78125 -44.628906 34.289062 -37.101562 39.3125 -31.46875 C 44.332031 -25.84375 50.882812 -23.03125 58.96875 -23.03125 C 63.988281 -23.03125 68.46875 -24.207031 72.40625 -26.5625 C 76.34375 -28.914062 79.390625 -32.347656 81.546875 -36.859375 L 110.40625 -36.859375 C 107.332031 -25.179688 101.238281 -15.988281 92.125 -9.28125 C 83.019531 -2.582031 72.070312 0.765625 59.28125 0.765625 C 48.832031 0.765625 39.488281 -1.5625 31.25 -6.21875 C 23.007812 -10.875 16.582031 -17.347656 11.96875 -25.640625 C 7.363281 -33.929688 5.0625 -43.398438 5.0625 -54.046875 Z M 5.0625 -54.046875 "/></g></g></g><g fill="#a276fa" fill-opacity="1"><g transform="translate(620.311878, 285.235104)"><g><path d="M 48.53125 1.234375 C 40.132812 1.234375 32.582031 -0.554688 25.875 -4.140625 C 19.164062 -7.722656 13.890625 -12.84375 10.046875 -19.5 C 6.210938 -26.15625 4.296875 -33.9375 4.296875 -42.84375 C 4.296875 -51.644531 6.238281 -59.398438 10.125 -66.109375 C 14.019531 -72.816406 19.34375 -77.960938 26.09375 -81.546875 C 32.851562 -85.128906 40.429688 -86.921875 48.828125 -86.921875 C 57.222656 -86.921875 64.796875 -85.128906 71.546875 -81.546875 C 78.304688 -77.960938 83.628906 -72.816406 87.515625 -66.109375 C 91.410156 -59.398438 93.359375 -51.644531 93.359375 -42.84375 C 93.359375 -34.039062 91.390625 -26.285156 87.453125 -19.578125 C 83.515625 -12.867188 78.140625 -7.722656 71.328125 -4.140625 C 64.523438 -0.554688 56.925781 1.234375 48.53125 1.234375 Z M 48.53125 -21.5 C 53.539062 -21.5 57.8125 -23.34375 61.34375 -27.03125 C 64.875 -30.71875 66.640625 -35.988281 66.640625 -42.84375 C 66.640625 -49.695312 64.925781 -54.96875 61.5 -58.65625 C 58.070312 -62.34375 53.847656 -64.1875 48.828125 -64.1875 C 43.710938 -64.1875 39.460938 -62.367188 36.078125 -58.734375 C 32.703125 -55.097656 31.015625 -49.800781 31.015625 -42.84375 C 31.015625 -35.988281 32.675781 -30.71875 36 -27.03125 C 39.332031 -23.34375 43.507812 -21.5 48.53125 -21.5 Z M 48.53125 -21.5 "/></g></g></g><g fill="#a276fa" fill-opacity="1"><g transform="translate(718.128895, 285.235104)"><g><path d="M 61.734375 -86.609375 C 71.765625 -86.609375 79.773438 -83.359375 85.765625 -76.859375 C 91.753906 -70.359375 94.75 -61.425781 94.75 -50.0625 L 94.75 0 L 68.640625 0 L 68.640625 -46.53125 C 68.640625 -52.257812 67.15625 -56.710938 64.1875 -59.890625 C 61.21875 -63.066406 57.226562 -64.65625 52.21875 -64.65625 C 47.195312 -64.65625 43.203125 -63.066406 40.234375 -59.890625 C 37.265625 -56.710938 35.78125 -52.257812 35.78125 -46.53125 L 35.78125 0 L 9.515625 0 L 9.515625 -85.6875 L 35.78125 -85.6875 L 35.78125 -74.328125 C 38.4375 -78.109375 42.015625 -81.097656 46.515625 -83.296875 C 51.023438 -85.503906 56.097656 -86.609375 61.734375 -86.609375 Z M 61.734375 -86.609375 "/></g></g></g><g fill="#a276fa" fill-opacity="1"><g transform="translate(821.627591, 285.235104)"><g><path d="M 61.734375 -86.609375 C 71.765625 -86.609375 79.773438 -83.359375 85.765625 -76.859375 C 91.753906 -70.359375 94.75 -61.425781 94.75 -50.0625 L 94.75 0 L 68.640625 0 L 68.640625 -46.53125 C 68.640625 -52.257812 67.15625 -56.710938 64.1875 -59.890625 C 61.21875 -63.066406 57.226562 -64.65625 52.21875 -64.65625 C 47.195312 -64.65625 43.203125 -63.066406 40.234375 -59.890625 C 37.265625 -56.710938 35.78125 -52.257812 35.78125 -46.53125 L 35.78125 0 L 9.515625 0 L 9.515625 -85.6875 L 35.78125 -85.6875 L 35.78125 -74.328125 C 38.4375 -78.109375 42.015625 -81.097656 46.515625 -83.296875 C 51.023438 -85.503906 56.097656 -86.609375 61.734375 -86.609375 Z M 61.734375 -86.609375 "/></g></g></g><g fill="#5572f4" fill-opacity="1"><g transform="translate(925.1219, 285.235104)"><g><path d="M 76.625 -19.046875 L 36.390625 -19.046875 L 29.9375 0 L 2.453125 0 L 41.46875 -107.796875 L 71.875 -107.796875 L 110.875 0 L 83.078125 0 Z M 69.875 -39.3125 L 56.515625 -78.78125 L 43.296875 -39.3125 Z M 69.875 -39.3125 "/></g></g></g><g fill="#5572f4" fill-opacity="1"><g transform="translate(1038.294807, 285.235104)"><g><path d="M 4.296875 -42.84375 C 4.296875 -51.75 6.113281 -59.53125 9.75 -66.1875 C 13.382812 -72.84375 18.453125 -77.960938 24.953125 -81.546875 C 31.453125 -85.128906 38.898438 -86.921875 47.296875 -86.921875 C 58.046875 -86.921875 67.03125 -84.101562 74.25 -78.46875 C 81.46875 -72.84375 86.203125 -64.910156 88.453125 -54.671875 L 60.5 -54.671875 C 58.144531 -61.222656 53.59375 -64.5 46.84375 -64.5 C 42.03125 -64.5 38.1875 -62.628906 35.3125 -58.890625 C 32.445312 -55.148438 31.015625 -49.800781 31.015625 -42.84375 C 31.015625 -35.882812 32.445312 -30.535156 35.3125 -26.796875 C 38.1875 -23.054688 42.03125 -21.1875 46.84375 -21.1875 C 53.59375 -21.1875 58.144531 -24.460938 60.5 -31.015625 L 88.453125 -31.015625 C 86.203125 -20.984375 81.441406 -13.097656 74.171875 -7.359375 C 66.898438 -1.628906 57.941406 1.234375 47.296875 1.234375 C 38.898438 1.234375 31.453125 -0.554688 24.953125 -4.140625 C 18.453125 -7.722656 13.382812 -12.84375 9.75 -19.5 C 6.113281 -26.15625 4.296875 -33.9375 4.296875 -42.84375 Z M 4.296875 -42.84375 "/></g></g></g><g fill="#5572f4" fill-opacity="1"><g transform="translate(1131.197939, 285.235104)"><g><path d="M 57.28125 -22.265625 L 57.28125 0 L 43.921875 0 C 34.398438 0 26.976562 -2.328125 21.65625 -6.984375 C 16.332031 -11.640625 13.671875 -19.242188 13.671875 -29.796875 L 13.671875 -63.875 L 3.21875 -63.875 L 3.21875 -85.6875 L 13.671875 -85.6875 L 13.671875 -106.578125 L 39.921875 -106.578125 L 39.921875 -85.6875 L 57.125 -85.6875 L 57.125 -63.875 L 39.921875 -63.875 L 39.921875 -29.484375 C 39.921875 -26.921875 40.535156 -25.078125 41.765625 -23.953125 C 42.992188 -22.828125 45.039062 -22.265625 47.90625 -22.265625 Z M 57.28125 -22.265625 "/></g></g></g><g fill="#5572f4" fill-opacity="1"><g transform="translate(1193.542851, 285.235104)"><g><path d="M 22.734375 -94.59375 C 18.117188 -94.59375 14.351562 -95.945312 11.4375 -98.65625 C 8.519531 -101.375 7.0625 -104.726562 7.0625 -108.71875 C 7.0625 -112.8125 8.519531 -116.210938 11.4375 -118.921875 C 14.351562 -121.640625 18.117188 -123 22.734375 -123 C 27.234375 -123 30.941406 -121.640625 33.859375 -118.921875 C 36.773438 -116.210938 38.234375 -112.8125 38.234375 -108.71875 C 38.234375 -104.726562 36.773438 -101.375 33.859375 -98.65625 C 30.941406 -95.945312 27.234375 -94.59375 22.734375 -94.59375 Z M 35.78125 -85.6875 L 35.78125 0 L 9.515625 0 L 9.515625 -85.6875 Z M 35.78125 -85.6875 "/></g></g></g><g fill="#5572f4" fill-opacity="1"><g transform="translate(1238.842726, 285.235104)"><g><path d="M 48.53125 1.234375 C 40.132812 1.234375 32.582031 -0.554688 25.875 -4.140625 C 19.164062 -7.722656 13.890625 -12.84375 10.046875 -19.5 C 6.210938 -26.15625 4.296875 -33.9375 4.296875 -42.84375 C 4.296875 -51.644531 6.238281 -59.398438 10.125 -66.109375 C 14.019531 -72.816406 19.34375 -77.960938 26.09375 -81.546875 C 32.851562 -85.128906 40.429688 -86.921875 48.828125 -86.921875 C 57.222656 -86.921875 64.796875 -85.128906 71.546875 -81.546875 C 78.304688 -77.960938 83.628906 -72.816406 87.515625 -66.109375 C 91.410156 -59.398438 93.359375 -51.644531 93.359375 -42.84375 C 93.359375 -34.039062 91.390625 -26.285156 87.453125 -19.578125 C 83.515625 -12.867188 78.140625 -7.722656 71.328125 -4.140625 C 64.523438 -0.554688 56.925781 1.234375 48.53125 1.234375 Z M 48.53125 -21.5 C 53.539062 -21.5 57.8125 -23.34375 61.34375 -27.03125 C 64.875 -30.71875 66.640625 -35.988281 66.640625 -42.84375 C 66.640625 -49.695312 64.925781 -54.96875 61.5 -58.65625 C 58.070312 -62.34375 53.847656 -64.1875 48.828125 -64.1875 C 43.710938 -64.1875 39.460938 -62.367188 36.078125 -58.734375 C 32.703125 -55.097656 31.015625 -49.800781 31.015625 -42.84375 C 31.015625 -35.988281 32.675781 -30.71875 36 -27.03125 C 39.332031 -23.34375 43.507812 -21.5 48.53125 -21.5 Z M 48.53125 -21.5 "/></g></g></g><g fill="#5572f4" fill-opacity="1"><g transform="translate(1336.659743, 285.235104)"><g><path d="M 61.734375 -86.609375 C 71.765625 -86.609375 79.773438 -83.359375 85.765625 -76.859375 C 91.753906 -70.359375 94.75 -61.425781 94.75 -50.0625 L 94.75 0 L 68.640625 0 L 68.640625 -46.53125 C 68.640625 -52.257812 67.15625 -56.710938 64.1875 -59.890625 C 61.21875 -63.066406 57.226562 -64.65625 52.21875 -64.65625 C 47.195312 -64.65625 43.203125 -63.066406 40.234375 -59.890625 C 37.265625 -56.710938 35.78125 -52.257812 35.78125 -46.53125 L 35.78125 0 L 9.515625 0 L 9.515625 -85.6875 L 35.78125 -85.6875 L 35.78125 -74.328125 C 38.4375 -78.109375 42.015625 -81.097656 46.515625 -83.296875 C 51.023438 -85.503906 56.097656 -86.609375 61.734375 -86.609375 Z M 61.734375 -86.609375 "/></g></g></g><path fill="#e27cff" d="M 291.484375 163.792969 C 249.136719 163.792969 210.617188 150.730469 180.101562 126.03125 C 149.898438 101.574219 127.558594 65.691406 115.371094 22.132812 C 126.355469 17.445312 133.023438 14.394531 143.914062 9.0625 C 167.613281 86.523438 224.089844 130.84375 299.429688 130.84375 C 312.351562 130.84375 325.816406 129.515625 339.519531 126.882812 C 339.878906 138.699219 340.3125 146.253906 341.316406 158.230469 C 324.332031 161.925781 307.582031 163.792969 291.484375 163.792969 " fill-opacity="1" fill-rule="nonzero"/><path fill="#e27cff" d="M 288.914062 61.386719 C 278.363281 78.90625 255.605469 84.550781 238.089844 74 C 220.574219 63.449219 214.925781 40.695312 225.476562 23.179688 C 236.03125 5.664062 258.785156 0.0117188 276.300781 10.5625 C 293.820312 21.117188 299.464844 43.871094 288.914062 61.386719 " fill-opacity="1" fill-rule="nonzero"/><path fill="#7c7afa" d="M 23.300781 348.90625 C 18.617188 337.933594 15.570312 331.265625 10.230469 320.359375 C 101.109375 292.511719 145.921875 218.121094 128.054688 124.757812 C 139.863281 124.398438 147.417969 123.960938 159.402344 122.960938 C 170.988281 176.253906 164.414062 225.460938 140.332031 265.441406 C 116.253906 305.410156 75.828125 334.230469 23.300781 348.90625 " fill-opacity="1" fill-rule="nonzero"/><path fill="#7c7afa" d="M 62.558594 175.363281 C 80.074219 185.914062 85.722656 208.671875 75.167969 226.1875 C 64.617188 243.703125 41.863281 249.351562 24.347656 238.800781 C 6.828125 228.246094 1.183594 205.496094 11.734375 187.976562 C 22.285156 170.457031 45.039062 164.8125 62.558594 175.363281 " fill-opacity="1" fill-rule="nonzero"/><path fill="#5572f4" d="M 321.535156 454.046875 C 297.835938 376.582031 241.355469 332.265625 166.019531 332.265625 C 153.097656 332.265625 139.632812 333.59375 125.925781 336.226562 C 125.566406 324.398438 125.128906 316.84375 124.128906 304.878906 C 141.113281 301.183594 157.863281 299.316406 173.960938 299.316406 C 216.3125 299.316406 254.828125 312.378906 285.34375 337.078125 C 315.546875 361.535156 337.886719 397.417969 350.078125 440.976562 C 339.105469 445.660156 332.433594 448.710938 321.535156 454.046875 " fill-opacity="1" fill-rule="nonzero"/><path fill="#5572f4" d="M 176.53125 401.722656 C 187.085938 384.203125 209.839844 378.558594 227.355469 389.109375 C 244.871094 399.65625 250.519531 422.414062 239.96875 439.929688 C 229.417969 457.445312 206.664062 463.09375 189.144531 452.546875 C 171.628906 441.992188 165.980469 419.238281 176.53125 401.722656 " fill-opacity="1" fill-rule="nonzero"/><path fill="#39b9cb" d="M 306.046875 340.148438 C 294.457031 286.855469 301.03125 237.648438 325.113281 197.667969 C 349.191406 157.699219 389.621094 128.878906 442.144531 114.203125 C 446.832031 125.195312 449.890625 131.863281 455.214844 142.746094 C 364.335938 170.597656 319.523438 244.988281 337.394531 338.351562 C 325.582031 338.710938 318.027344 339.148438 306.046875 340.148438 " fill-opacity="1" fill-rule="nonzero"/><path fill="#39b9cb" d="M 402.890625 287.746094 C 385.371094 277.195312 379.726562 254.4375 390.277344 236.921875 C 400.828125 219.40625 423.585938 213.757812 441.101562 224.308594 C 458.617188 234.863281 464.265625 257.613281 453.714844 275.132812 C 443.160156 292.652344 420.40625 298.296875 402.890625 287.746094 " fill-opacity="1" fill-rule="nonzero"/></svg>