<svg xmlns="http://www.w3.org/2000/svg" xmlns:xlink="http://www.w3.org/1999/xlink" width="1920" zoomAndPan="magnify" viewBox="0 0 1440 809.999993" height="1080" preserveAspectRatio="xMidYMid meet" version="1.0"><defs><g/></defs><path fill="#ffffff" d="M 490.15625 345.667969 C 466.082031 345.667969 444.183594 338.242188 426.835938 324.199219 C 409.667969 310.296875 396.964844 289.898438 390.039062 265.136719 C 396.28125 262.46875 400.074219 260.734375 406.265625 257.703125 C 419.734375 301.742188 451.84375 326.9375 494.671875 326.9375 C 502.019531 326.9375 509.675781 326.179688 517.464844 324.683594 C 517.667969 331.402344 517.914062 335.695312 518.488281 342.507812 C 508.828125 344.605469 499.308594 345.667969 490.15625 345.667969 " fill-opacity="1" fill-rule="nonzero"/><path fill="#ffffff" d="M 488.695312 287.453125 C 482.699219 297.410156 469.761719 300.621094 459.804688 294.621094 C 449.84375 288.625 446.632812 275.6875 452.632812 265.730469 C 458.632812 255.773438 471.566406 252.558594 481.523438 258.558594 C 491.484375 264.558594 494.695312 277.492188 488.695312 287.453125 " fill-opacity="1" fill-rule="nonzero"/><path fill="#ffffff" d="M 337.695312 450.90625 C 335.035156 444.664062 333.300781 440.875 330.265625 434.675781 C 381.929688 418.84375 407.40625 376.554688 397.246094 323.476562 C 403.960938 323.273438 408.257812 323.023438 415.066406 322.457031 C 421.65625 352.753906 417.917969 380.726562 404.226562 403.457031 C 390.539062 426.175781 367.554688 442.5625 337.695312 450.90625 " fill-opacity="1" fill-rule="nonzero"/><path fill="#ffffff" d="M 360.011719 352.246094 C 369.972656 358.242188 373.183594 371.179688 367.183594 381.140625 C 361.183594 391.097656 348.25 394.308594 338.289062 388.308594 C 328.332031 382.308594 325.121094 369.375 331.121094 359.417969 C 337.117188 349.457031 350.054688 346.246094 360.011719 352.246094 " fill-opacity="1" fill-rule="nonzero"/><path fill="#ffffff" d="M 507.238281 510.675781 C 493.765625 466.640625 461.660156 441.445312 418.828125 441.445312 C 411.484375 441.445312 403.828125 442.199219 396.035156 443.695312 C 395.832031 436.972656 395.585938 432.675781 395.015625 425.875 C 404.671875 423.773438 414.195312 422.710938 423.34375 422.710938 C 447.421875 422.710938 469.316406 430.136719 486.667969 444.179688 C 503.835938 458.082031 516.535156 478.484375 523.464844 503.246094 C 517.226562 505.910156 513.4375 507.644531 507.238281 510.675781 " fill-opacity="1" fill-rule="nonzero"/><path fill="#ffffff" d="M 424.808594 480.929688 C 430.804688 470.96875 443.742188 467.761719 453.699219 473.757812 C 463.65625 479.757812 466.867188 492.695312 460.871094 502.652344 C 454.871094 512.609375 441.9375 515.820312 431.976562 509.824219 C 422.019531 503.824219 418.808594 490.886719 424.808594 480.929688 " fill-opacity="1" fill-rule="nonzero"/><path fill="#ffffff" d="M 498.433594 445.925781 C 491.847656 415.628906 495.585938 387.652344 509.273438 364.925781 C 522.964844 342.203125 545.945312 325.820312 575.808594 317.476562 C 578.472656 323.726562 580.210938 327.515625 583.238281 333.703125 C 531.574219 349.535156 506.097656 391.828125 516.257812 444.90625 C 509.539062 445.109375 505.246094 445.355469 498.433594 445.925781 " fill-opacity="1" fill-rule="nonzero"/><path fill="#ffffff" d="M 553.492188 416.132812 C 543.53125 410.136719 540.320312 397.199219 546.320312 387.242188 C 552.316406 377.285156 565.253906 374.074219 575.210938 380.070312 C 585.171875 386.070312 588.382812 399.003906 582.382812 408.964844 C 576.382812 418.925781 563.449219 422.132812 553.492188 416.132812 " fill-opacity="1" fill-rule="nonzero"/><g fill="#ffffff" fill-opacity="1"><g transform="translate(616.618151, 421.587304)"><g><path d="M 2.484375 -26.484375 C 2.484375 -31.691406 3.609375 -36.335938 5.859375 -40.421875 C 8.117188 -44.515625 11.265625 -47.703125 15.296875 -49.984375 C 19.335938 -52.265625 23.914062 -53.40625 29.03125 -53.40625 C 35.300781 -53.40625 40.664062 -51.75 45.125 -48.4375 C 49.59375 -45.125 52.578125 -40.613281 54.078125 -34.90625 L 39.9375 -34.90625 C 38.882812 -37.113281 37.390625 -38.789062 35.453125 -39.9375 C 33.523438 -41.09375 31.335938 -41.671875 28.890625 -41.671875 C 24.921875 -41.671875 21.707031 -40.289062 19.25 -37.53125 C 16.789062 -34.769531 15.5625 -31.085938 15.5625 -26.484375 C 15.5625 -21.867188 16.789062 -18.179688 19.25 -15.421875 C 21.707031 -12.660156 24.921875 -11.28125 28.890625 -11.28125 C 31.335938 -11.28125 33.523438 -11.859375 35.453125 -13.015625 C 37.390625 -14.171875 38.882812 -15.847656 39.9375 -18.046875 L 54.078125 -18.046875 C 52.578125 -12.335938 49.59375 -7.835938 45.125 -4.546875 C 40.664062 -1.265625 35.300781 0.375 29.03125 0.375 C 23.914062 0.375 19.335938 -0.765625 15.296875 -3.046875 C 11.265625 -5.328125 8.117188 -8.5 5.859375 -12.5625 C 3.609375 -16.625 2.484375 -21.265625 2.484375 -26.484375 Z M 2.484375 -26.484375 "/></g></g></g><g fill="#ffffff" fill-opacity="1"><g transform="translate(673.928879, 421.587304)"><g><path d="M 23.765625 0.609375 C 19.648438 0.609375 15.953125 -0.265625 12.671875 -2.015625 C 9.390625 -3.773438 6.804688 -6.285156 4.921875 -9.546875 C 3.046875 -12.804688 2.109375 -16.617188 2.109375 -20.984375 C 2.109375 -25.296875 3.0625 -29.09375 4.96875 -32.375 C 6.875 -35.664062 9.476562 -38.1875 12.78125 -39.9375 C 16.09375 -41.695312 19.804688 -42.578125 23.921875 -42.578125 C 28.035156 -42.578125 31.742188 -41.695312 35.046875 -39.9375 C 38.359375 -38.1875 40.96875 -35.664062 42.875 -32.375 C 44.78125 -29.09375 45.734375 -25.296875 45.734375 -20.984375 C 45.734375 -16.671875 44.765625 -12.867188 42.828125 -9.578125 C 40.898438 -6.296875 38.269531 -3.773438 34.9375 -2.015625 C 31.601562 -0.265625 27.878906 0.609375 23.765625 0.609375 Z M 23.765625 -10.53125 C 26.222656 -10.53125 28.316406 -11.429688 30.046875 -13.234375 C 31.773438 -15.046875 32.640625 -17.628906 32.640625 -20.984375 C 32.640625 -24.347656 31.800781 -26.929688 30.125 -28.734375 C 28.445312 -30.535156 26.378906 -31.4375 23.921875 -31.4375 C 21.410156 -31.4375 19.328125 -30.546875 17.671875 -28.765625 C 16.015625 -26.984375 15.1875 -24.390625 15.1875 -20.984375 C 15.1875 -17.628906 16 -15.046875 17.625 -13.234375 C 19.257812 -11.429688 21.304688 -10.53125 23.765625 -10.53125 Z M 23.765625 -10.53125 "/></g></g></g><g fill="#ffffff" fill-opacity="1"><g transform="translate(721.838239, 421.587304)"><g><path d="M 30.234375 -42.421875 C 35.148438 -42.421875 39.070312 -40.828125 42 -37.640625 C 44.9375 -34.460938 46.40625 -30.085938 46.40625 -24.515625 L 46.40625 0 L 33.625 0 L 33.625 -22.796875 C 33.625 -25.597656 32.894531 -27.773438 31.4375 -29.328125 C 29.988281 -30.890625 28.035156 -31.671875 25.578125 -31.671875 C 23.117188 -31.671875 21.160156 -30.890625 19.703125 -29.328125 C 18.253906 -27.773438 17.53125 -25.597656 17.53125 -22.796875 L 17.53125 0 L 4.65625 0 L 4.65625 -41.96875 L 17.53125 -41.96875 L 17.53125 -36.40625 C 18.832031 -38.257812 20.582031 -39.722656 22.78125 -40.796875 C 24.988281 -41.878906 27.472656 -42.421875 30.234375 -42.421875 Z M 30.234375 -42.421875 "/></g></g></g><g fill="#ffffff" fill-opacity="1"><g transform="translate(772.530402, 421.587304)"><g><path d="M 30.234375 -42.421875 C 35.148438 -42.421875 39.070312 -40.828125 42 -37.640625 C 44.9375 -34.460938 46.40625 -30.085938 46.40625 -24.515625 L 46.40625 0 L 33.625 0 L 33.625 -22.796875 C 33.625 -25.597656 32.894531 -27.773438 31.4375 -29.328125 C 29.988281 -30.890625 28.035156 -31.671875 25.578125 -31.671875 C 23.117188 -31.671875 21.160156 -30.890625 19.703125 -29.328125 C 18.253906 -27.773438 17.53125 -25.597656 17.53125 -22.796875 L 17.53125 0 L 4.65625 0 L 4.65625 -41.96875 L 17.53125 -41.96875 L 17.53125 -36.40625 C 18.832031 -38.257812 20.582031 -39.722656 22.78125 -40.796875 C 24.988281 -41.878906 27.472656 -42.421875 30.234375 -42.421875 Z M 30.234375 -42.421875 "/></g></g></g><g fill="#ffffff" fill-opacity="1"><g transform="translate(821.265547, 459.209529)"><g><path d="M 44.21875 -10.984375 L 21 -10.984375 L 17.28125 0 L 1.421875 0 L 23.921875 -62.21875 L 41.46875 -62.21875 L 63.984375 0 L 47.953125 0 Z M 40.328125 -22.6875 L 32.609375 -45.46875 L 25 -22.6875 Z M 40.328125 -22.6875 "/></g></g></g><g fill="#ffffff" fill-opacity="1"><g transform="translate(886.576381, 459.209529)"><g><path d="M 2.484375 -24.71875 C 2.484375 -29.863281 3.53125 -34.351562 5.625 -38.1875 C 7.726562 -42.03125 10.65625 -44.984375 14.40625 -47.046875 C 18.15625 -49.117188 22.453125 -50.15625 27.296875 -50.15625 C 33.503906 -50.15625 38.6875 -48.53125 42.84375 -45.28125 C 47.007812 -42.03125 49.742188 -37.453125 51.046875 -31.546875 L 34.921875 -31.546875 C 33.554688 -35.328125 30.925781 -37.21875 27.03125 -37.21875 C 24.25 -37.21875 22.03125 -36.140625 20.375 -33.984375 C 18.726562 -31.828125 17.90625 -28.738281 17.90625 -24.71875 C 17.90625 -20.707031 18.726562 -17.625 20.375 -15.46875 C 22.03125 -13.3125 24.25 -12.234375 27.03125 -12.234375 C 30.925781 -12.234375 33.554688 -14.125 34.921875 -17.90625 L 51.046875 -17.90625 C 49.742188 -12.113281 46.992188 -7.5625 42.796875 -4.25 C 38.609375 -0.945312 33.441406 0.703125 27.296875 0.703125 C 22.453125 0.703125 18.15625 -0.328125 14.40625 -2.390625 C 10.65625 -4.460938 7.726562 -7.414062 5.625 -11.25 C 3.53125 -15.09375 2.484375 -19.582031 2.484375 -24.71875 Z M 2.484375 -24.71875 "/></g></g></g><g fill="#ffffff" fill-opacity="1"><g transform="translate(940.189751, 459.209529)"><g><path d="M 33.0625 -12.84375 L 33.0625 0 L 25.34375 0 C 19.851562 0 15.570312 -1.34375 12.5 -4.03125 C 9.425781 -6.71875 7.890625 -11.101562 7.890625 -17.1875 L 7.890625 -36.875 L 1.859375 -36.875 L 1.859375 -49.453125 L 7.890625 -49.453125 L 7.890625 -61.5 L 23.046875 -61.5 L 23.046875 -49.453125 L 32.96875 -49.453125 L 32.96875 -36.875 L 23.046875 -36.875 L 23.046875 -17.015625 C 23.046875 -15.535156 23.398438 -14.46875 24.109375 -13.8125 C 24.816406 -13.164062 26 -12.84375 27.65625 -12.84375 Z M 33.0625 -12.84375 "/></g></g></g><g fill="#ffffff" fill-opacity="1"><g transform="translate(976.168314, 459.209529)"><g><path d="M 13.109375 -54.59375 C 10.453125 -54.59375 8.28125 -55.375 6.59375 -56.9375 C 4.914062 -58.507812 4.078125 -60.445312 4.078125 -62.75 C 4.078125 -65.113281 4.914062 -67.078125 6.59375 -68.640625 C 8.28125 -70.203125 10.453125 -70.984375 13.109375 -70.984375 C 15.710938 -70.984375 17.851562 -70.203125 19.53125 -68.640625 C 21.21875 -67.078125 22.0625 -65.113281 22.0625 -62.75 C 22.0625 -60.445312 21.21875 -58.507812 19.53125 -56.9375 C 17.851562 -55.375 15.710938 -54.59375 13.109375 -54.59375 Z M 20.65625 -49.453125 L 20.65625 0 L 5.5 0 L 5.5 -49.453125 Z M 20.65625 -49.453125 "/></g></g></g><g fill="#ffffff" fill-opacity="1"><g transform="translate(1002.310372, 459.209529)"><g><path d="M 28 0.703125 C 23.15625 0.703125 18.796875 -0.328125 14.921875 -2.390625 C 11.054688 -4.460938 8.015625 -7.414062 5.796875 -11.25 C 3.585938 -15.09375 2.484375 -19.582031 2.484375 -24.71875 C 2.484375 -29.800781 3.601562 -34.273438 5.84375 -38.140625 C 8.09375 -42.015625 11.164062 -44.984375 15.0625 -47.046875 C 18.96875 -49.117188 23.34375 -50.15625 28.1875 -50.15625 C 33.03125 -50.15625 37.398438 -49.117188 41.296875 -47.046875 C 45.203125 -44.984375 48.273438 -42.015625 50.515625 -38.140625 C 52.765625 -34.273438 53.890625 -29.800781 53.890625 -24.71875 C 53.890625 -19.644531 52.75 -15.171875 50.46875 -11.296875 C 48.195312 -7.429688 45.09375 -4.460938 41.15625 -2.390625 C 37.226562 -0.328125 32.84375 0.703125 28 0.703125 Z M 28 -12.40625 C 30.894531 -12.40625 33.363281 -13.46875 35.40625 -15.59375 C 37.445312 -17.71875 38.46875 -20.757812 38.46875 -24.71875 C 38.46875 -28.6875 37.476562 -31.734375 35.5 -33.859375 C 33.519531 -35.984375 31.082031 -37.046875 28.1875 -37.046875 C 25.226562 -37.046875 22.773438 -35.992188 20.828125 -33.890625 C 18.878906 -31.796875 17.90625 -28.738281 17.90625 -24.71875 C 17.90625 -20.757812 18.863281 -17.71875 20.78125 -15.59375 C 22.695312 -13.46875 25.101562 -12.40625 28 -12.40625 Z M 28 -12.40625 "/></g></g></g><g fill="#ffffff" fill-opacity="1"><g transform="translate(1058.759507, 459.209529)"><g><path d="M 35.625 -49.984375 C 41.414062 -49.984375 46.039062 -48.109375 49.5 -44.359375 C 52.957031 -40.609375 54.6875 -35.453125 54.6875 -28.890625 L 54.6875 0 L 39.609375 0 L 39.609375 -26.859375 C 39.609375 -30.160156 38.75 -32.726562 37.03125 -34.5625 C 35.320312 -36.394531 33.019531 -37.3125 30.125 -37.3125 C 27.238281 -37.3125 24.9375 -36.394531 23.21875 -34.5625 C 21.507812 -32.726562 20.65625 -30.160156 20.65625 -26.859375 L 20.65625 0 L 5.5 0 L 5.5 -49.453125 L 20.65625 -49.453125 L 20.65625 -42.890625 C 22.1875 -45.078125 24.25 -46.804688 26.84375 -48.078125 C 29.445312 -49.347656 32.375 -49.984375 35.625 -49.984375 Z M 35.625 -49.984375 "/></g></g></g></svg>