<svg version="1.1" id="Layer_1" xmlns="http://www.w3.org/2000/svg" xmlns:xlink="http://www.w3.org/1999/xlink" x="0px" y="0px"
	 width="100%" viewBox="0 0 478 105" enable-background="new 0 0 478 105" xml:space="preserve">
<path fill="#FFFCFD" opacity="1.000000" stroke="none" 
	d="
M479.000000,73.000000 
	C479.000000,83.985832 479.000000,94.971664 479.000000,106.000000 
	C376.979095,106.000000 274.958221,106.000000 172.626495,105.683517 
	C180.245941,103.245071 182.538620,96.327995 185.039154,89.879044 
	C191.587784,72.990105 197.763641,55.956654 204.306168,39.065269 
	C205.178940,36.811993 207.321396,35.053211 208.862427,33.055065 
	C209.804214,31.833904 210.720306,30.592932 212.260895,28.546745 
	C203.856674,28.546745 197.251022,28.546745 190.247406,28.546745 
	C190.344009,30.181002 190.423889,31.532505 190.500336,32.825901 
	C197.765350,33.223957 199.175217,34.229275 197.720840,38.693638 
	C194.661407,48.084942 191.148544,57.328529 187.442383,67.693802 
	C183.671600,58.140022 180.318680,49.656139 176.974548,41.168797 
	C174.014542,33.656345 174.094696,33.516792 182.056152,32.603149 
	C181.975739,31.274529 181.894119,29.925795 181.809418,28.526356 
	C172.758957,28.526356 164.149918,28.526356 155.325180,28.526356 
	C155.229187,30.013786 155.147614,31.277927 155.028778,33.119278 
	C160.294601,32.066353 161.953949,35.459011 163.406708,39.225235 
	C168.490845,52.405567 173.247849,65.731049 178.886108,78.671562 
	C182.288940,86.481461 178.746933,92.130363 174.796265,97.812813 
	C173.621506,99.502502 170.837601,100.073448 168.791016,101.157005 
	C168.463684,99.811630 168.588318,99.330383 168.888748,99.018456 
	C171.560898,96.244087 172.122360,93.089394 169.821564,90.004478 
	C167.746399,87.222107 164.799850,86.379456 161.383865,87.771942 
	C157.503906,89.353561 156.532104,92.346588 156.783386,96.224991 
	C157.130310,101.579468 161.582352,103.318367 165.000000,106.000000 
	C110.445839,106.000000 55.891685,106.000000 1.000000,106.000000 
	C1.000000,89.980682 1.000000,73.959000 1.459016,57.372173 
	C6.860784,56.807030 11.803535,56.807030 16.772606,56.807030 
	C16.772606,51.107807 16.772606,46.043991 16.772606,41.000000 
	C11.282321,41.000000 6.141160,41.000000 1.000000,41.000000 
	C1.000000,37.969406 1.000000,34.938812 1.424956,31.425594 
	C5.338151,31.625046 5.766416,29.719713 6.043232,26.761633 
	C7.139851,15.043097 16.925177,7.486787 27.922527,9.875285 
	C27.922527,27.784937 27.924774,45.764210 27.921736,63.743481 
	C27.919724,75.652100 26.683699,77.092957 15.028108,78.867203 
	C14.756098,78.908607 14.520569,79.189674 14.233574,79.382050 
	C14.233574,80.795586 14.233574,82.228119 14.233574,84.094177 
	C26.725662,84.094177 39.022209,84.100601 51.318729,84.085709 
	C52.785984,84.083931 54.253098,83.966011 55.815918,83.897751 
	C55.815918,82.089569 55.815918,80.542259 55.815918,79.045105 
	C45.647499,77.523026 42.199406,78.072311 42.269505,63.043304 
	C42.344906,46.877174 42.286552,30.710426 42.286556,14.543947 
	C42.286560,12.807318 42.286556,11.070688 42.286556,9.374063 
	C55.327576,8.925858 62.620159,14.955720 64.114166,27.081461 
	C64.501556,30.225622 65.369171,31.735025 68.765854,30.623749 
	C68.765854,21.721954 68.765854,12.820425 68.765854,3.665456 
	C61.098270,3.665456 53.777725,3.630535 46.457626,3.672739 
	C31.304958,3.760100 16.152529,3.888485 1.000000,4.000000 
	C1.000000,3.003570 1.000000,2.007140 1.000000,1.005355 
	C40.687561,1.000000 80.375122,1.000000 120.442909,1.355850 
	C120.057884,2.024206 119.307724,2.382072 118.525116,2.642414 
	C106.703491,6.575029 101.151100,15.660295 102.685692,27.993073 
	C103.865692,37.476116 109.982368,42.496017 118.037926,45.968307 
	C124.124664,48.591953 130.524796,50.659981 136.239426,53.929630 
	C142.572372,57.553055 144.423904,65.215515 141.809204,72.390892 
	C139.697159,78.186890 133.286636,82.321404 126.433250,80.542084 
	C121.951309,79.378456 117.072342,76.485550 114.284538,72.885544 
	C110.852928,68.454170 109.071213,62.595364 107.243614,57.130375 
	C106.222404,54.076710 104.915085,53.570065 101.843613,54.596104 
	C101.843613,59.337040 101.843620,64.137329 101.843620,68.937622 
	C101.843620,73.897797 101.843613,78.857964 101.843613,83.529633 
	C107.367767,85.900681 106.948906,80.353088 108.856911,78.968903 
	C113.272774,81.029900 117.180626,83.350792 121.396690,84.728455 
	C134.095810,88.878075 147.046692,82.839340 151.849716,70.883934 
	C157.177872,57.621513 152.475952,45.397369 139.514465,39.206020 
	C136.226196,37.635307 132.694565,36.582100 129.323303,35.174820 
	C126.110085,33.833508 122.765366,32.657932 119.821159,30.851065 
	C112.666969,26.460518 110.773682,17.614147 115.371605,11.433650 
	C119.727943,5.577891 129.887238,4.675240 135.193100,10.880256 
	C139.242630,15.616030 141.674026,21.856260 144.242233,27.684147 
	C145.428741,30.376625 146.086731,32.174511 149.335938,30.446943 
	C149.335938,21.650673 149.335938,12.884067 149.335938,4.244326 
	C144.622986,1.536597 144.661255,6.523947 143.114670,7.743633 
	C137.500122,5.394067 132.250061,3.197033 127.000000,1.000000 
	C244.209244,1.000000 361.418488,1.000000 479.000000,1.000000 
	C479.000000,21.352715 479.000000,41.707699 478.665405,62.409103 
	C476.078217,54.321785 468.977936,51.695087 461.904846,49.018124 
	C458.804962,47.844917 455.604523,46.848064 452.677002,45.332310 
	C449.290436,43.578918 447.759155,40.044983 449.414520,36.914211 
	C450.638947,34.598606 453.822998,32.322617 456.422577,31.927511 
	C462.850464,30.950552 467.113068,34.763783 470.070648,43.175091 
	C471.106537,46.121174 472.305115,47.799366 475.639954,46.286861 
	C475.639954,40.290581 475.639954,34.515896 475.639954,27.269274 
	C473.070801,28.930202 471.336426,30.051477 470.102112,30.849436 
	C465.945190,29.620804 461.916840,27.914938 457.727386,27.291698 
	C446.613220,25.638300 437.568665,34.260689 439.041138,44.949669 
	C440.179871,53.216011 446.472260,56.613438 453.394958,59.253693 
	C456.800690,60.552593 460.364594,61.594051 463.519562,63.356064 
	C468.141022,65.937073 469.712585,70.945076 467.854065,75.325203 
	C466.044678,79.589554 461.287445,81.519287 456.082489,80.146584 
	C448.893311,78.250603 446.000885,72.478783 443.698151,66.278297 
	C442.784943,63.819340 441.895813,61.905701 438.573242,63.390182 
	C438.573242,70.059853 438.573242,76.828766 438.573242,85.297852 
	C441.188690,83.275040 442.907867,81.945427 444.918213,80.390602 
	C445.620209,80.831444 446.836609,81.680313 448.128265,82.392754 
	C456.831848,87.193398 468.383667,85.916794 474.454529,79.332436 
	C476.202698,77.436455 477.497406,75.122398 479.000000,73.000000 
M369.562958,41.547092 
	C371.893829,35.151573 374.832001,32.579651 379.215118,33.408459 
	C385.172363,34.534935 385.233551,39.396645 385.377472,43.912178 
	C385.568420,49.903908 385.442291,55.905857 385.445618,61.903423 
	C385.449646,69.193626 385.446533,76.483833 385.446533,83.877174 
	C392.315735,83.877174 398.598633,83.877174 404.881531,83.877174 
	C405.178772,83.513641 405.476013,83.150101 405.773285,82.786568 
	C404.714325,81.708382 403.782806,79.895859 402.573181,79.685936 
	C398.498322,78.978745 397.520233,76.478912 397.577820,72.908928 
	C397.642273,68.911598 397.454102,64.906929 397.615997,60.915195 
	C397.884735,54.288353 397.813904,47.581669 398.886993,41.073639 
	C399.807709,35.489632 403.556000,32.822987 407.729065,33.372910 
	C413.130127,34.084648 414.055908,38.198017 414.129425,42.582001 
	C414.285828,51.908539 414.258606,61.238251 414.293457,70.566704 
	C414.309998,74.996086 414.296295,79.425583 414.296295,83.916077 
	C421.139801,83.916077 427.268799,83.916077 434.859680,83.916077 
	C433.570343,82.004898 432.892303,79.911423 431.951172,79.785591 
	C426.757172,79.091148 426.168671,75.646851 426.188690,71.474007 
	C426.235840,61.645069 426.315063,51.813152 426.129395,41.987198 
	C425.971558,33.634525 421.560638,28.631046 413.342560,27.292982 
	C406.046204,26.104988 400.486145,29.327286 395.794373,35.282284 
	C392.610016,30.211050 388.133118,26.859154 382.610992,27.327856 
	C377.634033,27.750288 372.818390,30.072689 368.029541,31.527374 
	C367.998474,31.141167 367.883545,29.712612 367.754181,28.104488 
	C361.578766,28.104488 355.635651,28.104488 349.692505,28.104488 
	C349.355042,28.440228 349.017548,28.775967 348.680054,29.111706 
	C349.668823,30.154659 350.531616,31.908661 351.669464,32.110283 
	C355.425720,32.775860 356.689850,35.120316 356.707947,38.431110 
	C356.771729,50.092747 356.749512,61.754971 356.725159,73.416893 
	C356.717987,76.859253 355.209259,78.931656 351.579163,79.655144 
	C350.256897,79.918678 349.216034,81.594116 348.046753,82.625389 
	C348.384277,83.012909 348.721802,83.400429 349.059326,83.787949 
	C358.126282,83.787949 367.193207,83.787949 376.260132,83.787949 
	C376.534424,83.365356 376.808716,82.942764 377.083008,82.520172 
	C375.936462,81.523384 374.918213,79.924110 373.618317,79.647278 
	C370.257721,78.931557 368.690765,77.168030 368.754120,73.806870 
	C368.951660,63.325550 369.142883,52.844112 369.562958,41.547092 
M305.159302,35.747433 
	C298.157043,47.064350 297.717682,59.045433 302.166046,71.220978 
	C305.580292,80.566025 314.258942,86.081604 323.916931,85.848633 
	C333.423370,85.619324 341.111816,79.643929 344.544983,69.638084 
	C343.293091,68.986794 342.007416,68.317940 340.760895,67.669441 
	C331.981750,79.542030 327.260345,82.247086 320.698853,79.294060 
	C314.783752,76.631958 311.259521,65.655357 313.605408,56.154945 
	C324.005280,56.154945 334.559113,56.154945 345.085052,56.154945 
	C345.100769,41.595562 339.427673,31.413822 329.663635,27.885153 
	C320.939728,24.732393 312.143799,27.396507 305.159302,35.747433 
M240.704453,35.771832 
	C242.160141,38.544849 243.434326,41.437195 245.146469,44.041626 
	C246.031326,45.387634 247.693619,46.222584 249.880219,48.000237 
	C249.880219,40.348804 249.880219,34.441891 249.880219,27.041559 
	C247.290405,28.955008 245.707947,30.124182 244.786255,30.805151 
	C240.211823,29.502668 236.158401,27.915630 231.958923,27.249565 
	C224.832153,26.119211 217.215393,30.494921 214.732986,36.556770 
	C211.986282,43.264069 213.776718,50.795742 219.636139,54.832020 
	C222.738937,56.969406 226.408051,58.307468 229.878052,59.881748 
	C232.589890,61.112068 235.552765,61.865059 238.113434,63.336094 
	C242.780762,66.017365 244.366806,70.835823 242.482437,75.327721 
	C240.723755,79.520020 235.785828,81.506828 230.685898,80.159241 
	C223.498474,78.260048 220.641800,72.491554 218.200119,66.331230 
	C216.819412,62.847748 216.823502,62.846130 213.226257,63.625618 
	C213.226257,70.393707 213.226257,77.137703 213.226257,85.548203 
	C215.867355,83.384361 217.497482,82.048805 219.305038,80.567886 
	C227.823395,84.942047 230.542618,85.651688 237.129089,85.074265 
	C245.201813,84.366547 251.465988,79.029922 253.040649,71.518745 
	C254.779633,63.223648 251.669067,56.285568 244.090607,52.298672 
	C241.172195,50.763344 237.928802,49.854412 234.864334,48.585533 
	C232.111328,47.445621 229.242813,46.465393 226.711594,44.939678 
	C223.610474,43.070457 222.494568,39.614807 224.145935,36.704632 
	C225.393433,34.506176 228.434341,32.074497 230.726593,32.024685 
	C233.851959,31.956770 237.024414,34.055367 240.704453,35.771832 
M269.377808,82.236893 
	C275.714661,86.396057 282.396454,86.572510 288.641510,82.647095 
	C295.535675,78.313675 294.542725,71.082397 294.437408,64.099991 
	C292.451202,64.099991 290.872284,64.099991 289.351898,64.099991 
	C288.883972,67.777390 289.117828,71.498848 287.780212,74.525909 
	C286.865692,76.595520 283.805389,78.779549 281.618927,78.871063 
	C280.017303,78.938095 277.771118,75.935303 276.752655,73.842972 
	C275.882019,72.054428 276.248413,69.615082 276.241364,67.463036 
	C276.204956,56.359695 276.224487,45.256172 276.224487,33.717400 
	C281.956299,33.717400 287.060577,33.717400 292.336426,33.717400 
	C292.336426,31.723318 292.336426,30.184797 292.336426,28.180819 
	C286.913422,28.180819 281.822876,28.180819 276.174835,28.180819 
	C276.174835,21.153559 276.174835,14.580582 276.174835,8.248649 
	C271.887238,6.774539 271.394348,9.273997 271.040710,11.943189 
	C270.003510,19.771957 266.747559,25.770523 258.551666,28.286627 
	C257.128174,28.723640 256.283630,31.046495 254.421570,33.477661 
	C258.925629,33.721092 261.487823,33.859577 264.269165,34.009899 
	C264.269165,45.892536 264.257324,57.202274 264.274658,68.511971 
	C264.282196,73.430443 264.829712,78.185593 269.377808,82.236893 
M58.629501,56.765701 
	C62.039803,56.765701 65.450104,56.765701 68.747879,56.765701 
	C68.747879,51.017498 68.747879,45.969463 68.747879,41.110619 
	C63.329632,41.110619 58.290459,41.110619 53.180779,41.110619 
	C53.180779,46.376358 53.180779,51.290157 53.180779,56.514847 
	C54.795929,56.604874 56.237400,56.685223 58.629501,56.765701 
z"/>
<path fill="#E20274" opacity="1.000000" stroke="none" 
	d="
M1.000000,4.468656 
	C16.152529,3.888485 31.304958,3.760100 46.457626,3.672739 
	C53.777725,3.630535 61.098270,3.665456 68.765854,3.665456 
	C68.765854,12.820425 68.765854,21.721954 68.765854,30.623749 
	C65.369171,31.735025 64.501556,30.225622 64.114166,27.081461 
	C62.620159,14.955720 55.327576,8.925858 42.286556,9.374063 
	C42.286556,11.070688 42.286560,12.807318 42.286556,14.543947 
	C42.286552,30.710426 42.344906,46.877174 42.269505,63.043304 
	C42.199406,78.072311 45.647499,77.523026 55.815918,79.045105 
	C55.815918,80.542259 55.815918,82.089569 55.815918,83.897751 
	C54.253098,83.966011 52.785984,84.083931 51.318729,84.085709 
	C39.022209,84.100601 26.725662,84.094177 14.233574,84.094177 
	C14.233574,82.228119 14.233574,80.795586 14.233574,79.382050 
	C14.520569,79.189674 14.756098,78.908607 15.028108,78.867203 
	C26.683699,77.092957 27.919724,75.652100 27.921736,63.743481 
	C27.924774,45.764210 27.922527,27.784937 27.922527,9.875285 
	C16.925177,7.486787 7.139851,15.043097 6.043232,26.761633 
	C5.766416,29.719713 5.338151,31.625046 1.424956,30.971485 
	C1.000000,22.312437 1.000000,13.624874 1.000000,4.468656 
z"/>
<path fill="#E30877" opacity="1.000000" stroke="none" 
	d="
M126.571533,1.000000 
	C132.250061,3.197033 137.500122,5.394067 143.114670,7.743633 
	C144.661255,6.523947 144.622986,1.536597 149.335938,4.244326 
	C149.335938,12.884067 149.335938,21.650673 149.335938,30.446943 
	C146.086731,32.174511 145.428741,30.376625 144.242233,27.684147 
	C141.674026,21.856260 139.242630,15.616030 135.193100,10.880256 
	C129.887238,4.675240 119.727943,5.577891 115.371605,11.433650 
	C110.773682,17.614147 112.666969,26.460518 119.821159,30.851065 
	C122.765366,32.657932 126.110085,33.833508 129.323303,35.174820 
	C132.694565,36.582100 136.226196,37.635307 139.514465,39.206020 
	C152.475952,45.397369 157.177872,57.621513 151.849716,70.883934 
	C147.046692,82.839340 134.095810,88.878075 121.396690,84.728455 
	C117.180626,83.350792 113.272774,81.029900 108.856911,78.968903 
	C106.948906,80.353088 107.367767,85.900681 101.843613,83.529633 
	C101.843613,78.857964 101.843620,73.897797 101.843620,68.937622 
	C101.843620,64.137329 101.843613,59.337040 101.843613,54.596104 
	C104.915085,53.570065 106.222404,54.076710 107.243614,57.130375 
	C109.071213,62.595364 110.852928,68.454170 114.284538,72.885544 
	C117.072342,76.485550 121.951309,79.378456 126.433250,80.542084 
	C133.286636,82.321404 139.697159,78.186890 141.809204,72.390892 
	C144.423904,65.215515 142.572372,57.553055 136.239426,53.929630 
	C130.524796,50.659981 124.124664,48.591953 118.037926,45.968307 
	C109.982368,42.496017 103.865692,37.476116 102.685692,27.993073 
	C101.151100,15.660295 106.703491,6.575029 118.525116,2.642414 
	C119.307724,2.382072 120.057884,2.024206 120.911568,1.355850 
	C122.714355,1.000000 124.428719,1.000000 126.571533,1.000000 
z"/>
<path fill="#E30A77" opacity="1.000000" stroke="none" 
	d="
M165.437500,106.000000 
	C161.582352,103.318367 157.130310,101.579468 156.783386,96.224991 
	C156.532104,92.346588 157.503906,89.353561 161.383865,87.771942 
	C164.799850,86.379456 167.746399,87.222107 169.821564,90.004478 
	C172.122360,93.089394 171.560898,96.244087 168.888748,99.018456 
	C168.588318,99.330383 168.463684,99.811630 168.791016,101.157005 
	C170.837601,100.073448 173.621506,99.502502 174.796265,97.812813 
	C178.746933,92.130363 182.288940,86.481461 178.886108,78.671562 
	C173.247849,65.731049 168.490845,52.405567 163.406708,39.225235 
	C161.953949,35.459011 160.294601,32.066353 155.028778,33.119278 
	C155.147614,31.277927 155.229187,30.013786 155.325180,28.526356 
	C164.149918,28.526356 172.758957,28.526356 181.809418,28.526356 
	C181.894119,29.925795 181.975739,31.274529 182.056152,32.603149 
	C174.094696,33.516792 174.014542,33.656345 176.974548,41.168797 
	C180.318680,49.656139 183.671600,58.140022 187.442383,67.693802 
	C191.148544,57.328529 194.661407,48.084942 197.720840,38.693638 
	C199.175217,34.229275 197.765350,33.223957 190.500336,32.825901 
	C190.423889,31.532505 190.344009,30.181002 190.247406,28.546745 
	C197.251022,28.546745 203.856674,28.546745 212.260895,28.546745 
	C210.720306,30.592932 209.804214,31.833904 208.862427,33.055065 
	C207.321396,35.053211 205.178940,36.811993 204.306168,39.065269 
	C197.763641,55.956654 191.587784,72.990105 185.039154,89.879044 
	C182.538620,96.327995 180.245941,103.245071 172.157837,105.683517 
	C169.958328,106.000000 167.916672,106.000000 165.437500,106.000000 
z"/>
<path fill="#E30A78" opacity="1.000000" stroke="none" 
	d="
M479.000000,72.545898 
	C477.497406,75.122398 476.202698,77.436455 474.454529,79.332436 
	C468.383667,85.916794 456.831848,87.193398 448.128265,82.392754 
	C446.836609,81.680313 445.620209,80.831444 444.918213,80.390602 
	C442.907867,81.945427 441.188690,83.275040 438.573242,85.297852 
	C438.573242,76.828766 438.573242,70.059853 438.573242,63.390182 
	C441.895813,61.905701 442.784943,63.819340 443.698151,66.278297 
	C446.000885,72.478783 448.893311,78.250603 456.082489,80.146584 
	C461.287445,81.519287 466.044678,79.589554 467.854065,75.325203 
	C469.712585,70.945076 468.141022,65.937073 463.519562,63.356064 
	C460.364594,61.594051 456.800690,60.552593 453.394958,59.253693 
	C446.472260,56.613438 440.179871,53.216011 439.041138,44.949669 
	C437.568665,34.260689 446.613220,25.638300 457.727386,27.291698 
	C461.916840,27.914938 465.945190,29.620804 470.102112,30.849436 
	C471.336426,30.051477 473.070801,28.930202 475.639954,27.269274 
	C475.639954,34.515896 475.639954,40.290581 475.639954,46.286861 
	C472.305115,47.799366 471.106537,46.121174 470.070648,43.175091 
	C467.113068,34.763783 462.850464,30.950552 456.422577,31.927511 
	C453.822998,32.322617 450.638947,34.598606 449.414520,36.914211 
	C447.759155,40.044983 449.290436,43.578918 452.677002,45.332310 
	C455.604523,46.848064 458.804962,47.844917 461.904846,49.018124 
	C468.977936,51.695087 476.078217,54.321785 478.665405,62.877762 
	C479.000000,66.030594 479.000000,69.061188 479.000000,72.545898 
z"/>
<path fill="#E20675" opacity="1.000000" stroke="none" 
	d="
M1.000000,41.466862 
	C6.141160,41.000000 11.282321,41.000000 16.772606,41.000000 
	C16.772606,46.043991 16.772606,51.107807 16.772606,56.807030 
	C11.803535,56.807030 6.860784,56.807030 1.459016,56.903515 
	C1.000000,51.977909 1.000000,46.955814 1.000000,41.466862 
z"/>
<path fill="#E30877" opacity="1.000000" stroke="none" 
	d="
M369.449768,41.954903 
	C369.142883,52.844112 368.951660,63.325550 368.754120,73.806870 
	C368.690765,77.168030 370.257721,78.931557 373.618317,79.647278 
	C374.918213,79.924110 375.936462,81.523384 377.083008,82.520172 
	C376.808716,82.942764 376.534424,83.365356 376.260132,83.787949 
	C367.193207,83.787949 358.126282,83.787949 349.059326,83.787949 
	C348.721802,83.400429 348.384277,83.012909 348.046753,82.625389 
	C349.216034,81.594116 350.256897,79.918678 351.579163,79.655144 
	C355.209259,78.931656 356.717987,76.859253 356.725159,73.416893 
	C356.749512,61.754971 356.771729,50.092747 356.707947,38.431110 
	C356.689850,35.120316 355.425720,32.775860 351.669464,32.110283 
	C350.531616,31.908661 349.668823,30.154659 348.680054,29.111706 
	C349.017548,28.775967 349.355042,28.440228 349.692505,28.104488 
	C355.635651,28.104488 361.578766,28.104488 367.754181,28.104488 
	C367.883545,29.712612 367.998474,31.141167 368.029541,31.527374 
	C372.818390,30.072689 377.634033,27.750288 382.610992,27.327856 
	C388.133118,26.859154 392.610016,30.211050 395.794373,35.282284 
	C400.486145,29.327286 406.046204,26.104988 413.342560,27.292982 
	C421.560638,28.631046 425.971558,33.634525 426.129395,41.987198 
	C426.315063,51.813152 426.235840,61.645069 426.188690,71.474007 
	C426.168671,75.646851 426.757172,79.091148 431.951172,79.785591 
	C432.892303,79.911423 433.570343,82.004898 434.859680,83.916077 
	C427.268799,83.916077 421.139801,83.916077 414.296295,83.916077 
	C414.296295,79.425583 414.309998,74.996086 414.293457,70.566704 
	C414.258606,61.238251 414.285828,51.908539 414.129425,42.582001 
	C414.055908,38.198017 413.130127,34.084648 407.729065,33.372910 
	C403.556000,32.822987 399.807709,35.489632 398.886993,41.073639 
	C397.813904,47.581669 397.884735,54.288353 397.615997,60.915195 
	C397.454102,64.906929 397.642273,68.911598 397.577820,72.908928 
	C397.520233,76.478912 398.498322,78.978745 402.573181,79.685936 
	C403.782806,79.895859 404.714325,81.708382 405.773285,82.786568 
	C405.476013,83.150101 405.178772,83.513641 404.881531,83.877174 
	C398.598633,83.877174 392.315735,83.877174 385.446533,83.877174 
	C385.446533,76.483833 385.449646,69.193626 385.445618,61.903423 
	C385.442291,55.905857 385.568420,49.903908 385.377472,43.912178 
	C385.233551,39.396645 385.172363,34.534935 379.215118,33.408459 
	C374.832001,32.579651 371.893829,35.151573 369.449768,41.954903 
z"/>
<path fill="#E30877" opacity="1.000000" stroke="none" 
	d="
M305.381866,35.459824 
	C312.143799,27.396507 320.939728,24.732393 329.663635,27.885153 
	C339.427673,31.413822 345.100769,41.595562 345.085052,56.154945 
	C334.559113,56.154945 324.005280,56.154945 313.605408,56.154945 
	C311.259521,65.655357 314.783752,76.631958 320.698853,79.294060 
	C327.260345,82.247086 331.981750,79.542030 340.760895,67.669441 
	C342.007416,68.317940 343.293091,68.986794 344.544983,69.638084 
	C341.111816,79.643929 333.423370,85.619324 323.916931,85.848633 
	C314.258942,86.081604 305.580292,80.566025 302.166046,71.220978 
	C297.717682,59.045433 298.157043,47.064350 305.381866,35.459824 
M331.810760,43.119083 
	C331.215790,41.052876 331.174133,38.506050 329.895325,37.033829 
	C328.007538,34.860504 325.259369,32.125370 322.840942,32.089352 
	C320.409821,32.053146 316.782745,34.498795 315.726501,36.797394 
	C313.763855,41.068359 313.289246,46.023094 312.152100,50.876617 
	C319.699860,50.876617 325.897461,50.876617 332.208191,50.876617 
	C332.093933,48.301159 331.998444,46.148609 331.810760,43.119083 
z"/>
<path fill="#E30777" opacity="1.000000" stroke="none" 
	d="
M240.440567,35.498451 
	C237.024414,34.055367 233.851959,31.956770 230.726593,32.024685 
	C228.434341,32.074497 225.393433,34.506176 224.145935,36.704632 
	C222.494568,39.614807 223.610474,43.070457 226.711594,44.939678 
	C229.242813,46.465393 232.111328,47.445621 234.864334,48.585533 
	C237.928802,49.854412 241.172195,50.763344 244.090607,52.298672 
	C251.669067,56.285568 254.779633,63.223648 253.040649,71.518745 
	C251.465988,79.029922 245.201813,84.366547 237.129089,85.074265 
	C230.542618,85.651688 227.823395,84.942047 219.305038,80.567886 
	C217.497482,82.048805 215.867355,83.384361 213.226257,85.548203 
	C213.226257,77.137703 213.226257,70.393707 213.226257,63.625618 
	C216.823502,62.846130 216.819412,62.847748 218.200119,66.331230 
	C220.641800,72.491554 223.498474,78.260048 230.685898,80.159241 
	C235.785828,81.506828 240.723755,79.520020 242.482437,75.327721 
	C244.366806,70.835823 242.780762,66.017365 238.113434,63.336094 
	C235.552765,61.865059 232.589890,61.112068 229.878052,59.881748 
	C226.408051,58.307468 222.738937,56.969406 219.636139,54.832020 
	C213.776718,50.795742 211.986282,43.264069 214.732986,36.556770 
	C217.215393,30.494921 224.832153,26.119211 231.958923,27.249565 
	C236.158401,27.915630 240.211823,29.502668 244.786255,30.805151 
	C245.707947,30.124182 247.290405,28.955008 249.880219,27.041559 
	C249.880219,34.441891 249.880219,40.348804 249.880219,48.000237 
	C247.693619,46.222584 246.031326,45.387634 245.146469,44.041626 
	C243.434326,41.437195 242.160141,38.544849 240.440567,35.498451 
z"/>
<path fill="#E30A77" opacity="1.000000" stroke="none" 
	d="
M269.078735,82.005615 
	C264.829712,78.185593 264.282196,73.430443 264.274658,68.511971 
	C264.257324,57.202274 264.269165,45.892536 264.269165,34.009899 
	C261.487823,33.859577 258.925629,33.721092 254.421570,33.477661 
	C256.283630,31.046495 257.128174,28.723640 258.551666,28.286627 
	C266.747559,25.770523 270.003510,19.771957 271.040710,11.943189 
	C271.394348,9.273997 271.887238,6.774539 276.174835,8.248649 
	C276.174835,14.580582 276.174835,21.153559 276.174835,28.180819 
	C281.822876,28.180819 286.913422,28.180819 292.336426,28.180819 
	C292.336426,30.184797 292.336426,31.723318 292.336426,33.717400 
	C287.060577,33.717400 281.956299,33.717400 276.224487,33.717400 
	C276.224487,45.256172 276.204956,56.359695 276.241364,67.463036 
	C276.248413,69.615082 275.882019,72.054428 276.752655,73.842972 
	C277.771118,75.935303 280.017303,78.938095 281.618927,78.871063 
	C283.805389,78.779549 286.865692,76.595520 287.780212,74.525909 
	C289.117828,71.498848 288.883972,67.777390 289.351898,64.099991 
	C290.872284,64.099991 292.451202,64.099991 294.437408,64.099991 
	C294.542725,71.082397 295.535675,78.313675 288.641510,82.647095 
	C282.396454,86.572510 275.714661,86.396057 269.078735,82.005615 
z"/>
<path fill="#E20674" opacity="1.000000" stroke="none" 
	d="
M58.154190,56.765633 
	C56.237400,56.685223 54.795929,56.604874 53.180779,56.514847 
	C53.180779,51.290157 53.180779,46.376358 53.180779,41.110619 
	C58.290459,41.110619 63.329632,41.110619 68.747879,41.110619 
	C68.747879,45.969463 68.747879,51.017498 68.747879,56.765701 
	C65.450104,56.765701 62.039803,56.765701 58.154190,56.765633 
z"/>
<path fill="#FFFBFD" opacity="1.000000" stroke="none" 
	d="
M331.856842,43.557571 
	C331.998444,46.148609 332.093933,48.301159 332.208191,50.876617 
	C325.897461,50.876617 319.699860,50.876617 312.152100,50.876617 
	C313.289246,46.023094 313.763855,41.068359 315.726501,36.797394 
	C316.782745,34.498795 320.409821,32.053146 322.840942,32.089352 
	C325.259369,32.125370 328.007538,34.860504 329.895325,37.033829 
	C331.174133,38.506050 331.215790,41.052876 331.856842,43.557571 
z"/>
</svg>